<svg width="24" height="24" viewBox="0 0 24 24" fill="none" xmlns="http://www.w3.org/2000/svg">
<path d="M4.0558 22.1335C4.07523 22.1549 4.09558 22.1753 4.11704 22.1948L4.08675 22.1633L4.0558 22.1335ZM19.9442 22.1335L19.9133 22.1632L19.883 22.1948C19.9044 22.1753 19.9248 22.1549 19.9442 22.1335ZM19.3949 6.12459L20.2064 6.00971C20.1541 5.95012 20.0809 5.87002 19.9794 5.76247C19.7167 5.4842 19.3017 5.06139 18.65 4.40487C18.7178 4.47526 18.7806 4.54103 18.8373 4.60115C18.9419 4.71204 19.0324 4.81046 19.0971 4.88553C19.1266 4.91984 19.1648 4.96526 19.1975 5.01095L19.1981 5.01176C19.2095 5.0278 19.2493 5.08328 19.2828 5.15705L19.2835 5.15857C19.2956 5.18532 19.3485 5.30131 19.3514 5.45871C19.353 5.54847 19.3395 5.7056 19.2396 5.86771C19.1293 6.04664 18.9636 6.15112 18.806 6.19614L18.7568 6.21022L18.7061 6.21746L18.7038 6.21779L18.6971 6.21878L18.6743 6.22213L18.5968 6.23353C18.532 6.24304 18.4422 6.25616 18.334 6.27179C18.1184 6.30293 17.8292 6.34406 17.5185 6.38645C17.4457 6.39701 17.3739 6.40766 17.3035 6.4181C17.0134 6.46115 16.7486 6.50042 16.5434 6.51381C16.4112 6.52244 16.2496 6.52512 16.0871 6.49401C16.0296 6.48301 15.9676 6.4669 15.9038 6.44342C15.9961 6.48333 16.0952 6.51245 16.1998 6.52877C16.3145 6.54557 16.4415 6.54936 17.8351 6.3454L17.8386 6.3449L19.3949 6.12459ZM15.2522 5.63397C15.2313 5.5099 15.2288 5.38547 15.2331 5.27277C15.2126 5.49842 15.2218 5.55296 15.2285 5.59332L15.2289 5.59545L15.2289 5.59545L15.2298 5.60111C15.2497 5.72658 15.293 5.84693 15.3558 5.9572C15.2987 5.8434 15.2685 5.73049 15.2522 5.63397ZM4.12795 1.79383C4.0989 1.81736 4.07726 1.83742 4.0638 1.8521C4.05894 1.85741 4.05021 1.86787 4.03848 1.88309L4.08674 1.83676L4.12795 1.79383ZM15.8787 1.54341C15.8791 1.54333 15.8754 1.54263 15.8669 1.54158C15.8742 1.54296 15.8784 1.54348 15.8787 1.54341ZM20.2283 5.85839C20.2283 5.85843 20.2283 5.86017 20.2285 5.86325L20.2283 5.85839ZM20.3133 6.14199C20.3138 6.14222 20.3111 6.1377 20.304 6.12793C20.3094 6.13692 20.3129 6.14176 20.3133 6.14199Z" stroke="#8E92BC" stroke-width="1.5"/>
<path d="M9.09355 7.82796C8.85283 7.82796 8.6301 7.82312 8.46321 7.81545C8.38173 7.8117 8.30347 7.80684 8.23986 7.80031C8.21182 7.79744 8.16545 7.7922 8.11684 7.78226C8.09829 7.77847 8.04071 7.76658 7.97364 7.73953C7.94399 7.72757 7.866 7.69468 7.78272 7.62813C7.71338 7.57273 7.4998 7.37965 7.4998 7.04046C7.4998 6.95173 7.51639 6.85596 7.52272 6.81944C7.523 6.81784 7.52326 6.81635 7.52349 6.81499C7.52834 6.78682 7.53399 6.75616 7.5402 6.72377C7.45344 7.11092 7.36119 7.53566 7.27149 7.96016C7.18009 8.3927 7.09176 8.82296 7.01492 9.21101C7.04185 9.08294 7.06689 8.96494 7.08874 8.86305C7.12683 8.68547 7.16622 8.50324 7.18456 8.44213L7.18451 8.44212L7.18706 8.43394C7.21338 8.34971 7.26602 8.22779 7.3759 8.11332C7.48146 8.00334 7.59764 7.94428 7.68398 7.91174C7.82778 7.85754 7.976 7.84658 8.0565 7.84129C8.24822 7.82869 8.57096 7.82796 9.08886 7.82796H9.09355ZM9.09355 7.82796C9.32953 7.82796 9.54765 7.82558 9.70956 7.82124C9.78897 7.81911 9.86272 7.81631 9.92061 7.81245C9.9466 7.81072 9.98574 7.80776 10.0255 7.80212C10.0402 7.80003 10.087 7.79336 10.1422 7.7773C10.1642 7.77093 10.2353 7.74996 10.316 7.70257C10.3164 7.70233 10.3169 7.70201 10.3176 7.70162C10.3503 7.68273 10.6873 7.48807 10.6873 7.05452C10.6873 7.03571 10.6866 7.01661 10.6853 6.99783C10.7365 7.24107 10.7938 7.51609 10.8586 7.82796H10.2514H9.09355ZM7.92624 5.2091C7.95385 5.15205 7.9859 5.09962 8.02071 5.05159C7.9709 5.11532 7.92933 5.18136 7.89849 5.2476L7.89755 5.24962C7.9034 5.23713 7.90267 5.23958 7.89524 5.26449C7.8904 5.28072 7.88271 5.3065 7.87214 5.3439C7.88495 5.30581 7.9032 5.25672 7.92627 5.20911L7.92624 5.2091ZM6.76672 10.6179C6.7668 10.6178 6.76705 10.6146 6.76725 10.609C6.76674 10.6153 6.76664 10.6181 6.76672 10.6179ZM11.4668 10.5912C11.4682 10.595 11.4681 10.5943 11.4663 10.5899L11.4668 10.5912ZM9.19095 7.11978C9.19096 7.11981 9.19085 7.11889 9.19057 7.11691L9.19095 7.11978ZM8.99638 7.10367C8.99639 7.10364 8.9965 7.10281 8.99668 7.10126L8.99638 7.10367ZM8.38669 6.30744C8.38669 6.30745 8.38742 6.30755 8.38898 6.30772L8.38669 6.30744Z" stroke="#8E92BC" stroke-width="1.5"/>
<path d="M17.1958 10.5338L17.1963 10.5333L17.1958 10.5338ZM14.1478 10.5338C14.148 10.5338 14.1506 10.5334 14.1554 10.5325C14.1501 10.5332 14.1477 10.5337 14.1478 10.5338Z" stroke="#8E92BC" stroke-width="1.5"/>
<path d="M6.62633 13.4641C6.62701 13.4642 6.62802 13.4643 6.62941 13.4644C6.61967 13.463 6.61759 13.4632 6.62633 13.4641ZM6.59676 13.5467C6.59717 13.5468 6.60305 13.5462 6.61316 13.5443C6.60141 13.5456 6.59635 13.5466 6.59676 13.5467Z" stroke="#8E92BC" stroke-width="1.5"/>
<mask id="path-5-inside-1_661_5615" fill="white">
<path d="M6.44523 15.8158C6.13586 15.9518 5.95304 16.3127 6.01867 16.6549C6.06086 16.8752 6.29992 17.1424 6.51086 17.208C6.78742 17.2924 7.37336 17.2455 7.52804 17.1283C7.73429 16.9783 7.83742 16.8096 7.86086 16.5846C7.89367 16.3127 7.79054 16.0783 7.56554 15.9096C7.40617 15.7877 7.34992 15.7736 6.98898 15.7596C6.72179 15.7549 6.53898 15.7736 6.44523 15.8158Z"/>
</mask>
<path d="M6.44523 15.8158L7.0608 17.1838L7.04864 17.1891L6.44523 15.8158ZM6.01867 16.6549L7.49182 16.3724L7.4919 16.3728L6.01867 16.6549ZM6.51086 17.208L6.07314 18.6427L6.06526 18.6403L6.51086 17.208ZM7.52804 17.1283L6.62226 15.9327L6.63394 15.9238L6.64579 15.9152L7.52804 17.1283ZM7.86086 16.5846L6.36893 16.4292L6.3702 16.417L6.37166 16.4048L7.86086 16.5846ZM7.56554 15.9096L6.6655 17.1096L6.65437 17.1011L7.56554 15.9096ZM6.98898 15.7596L7.01529 14.2598L7.03134 14.2601L7.04738 14.2607L6.98898 15.7596ZM7.04864 17.1891C7.24335 17.1035 7.36437 16.964 7.42876 16.8372C7.49329 16.7101 7.52568 16.5489 7.49182 16.3724L4.54551 16.9374C4.35479 15.9429 4.85981 14.874 5.84182 14.4425L7.04864 17.1891ZM7.4919 16.3728C7.46544 16.2346 7.42011 16.1419 7.3955 16.0976C7.36846 16.0488 7.34235 16.0151 7.32118 15.9913C7.30004 15.9676 7.26934 15.9376 7.22355 15.9048C7.18213 15.8752 7.09365 15.8184 6.95646 15.7757L6.06526 18.6403C5.6118 18.4992 5.28115 18.2112 5.08178 17.9876C4.88152 17.7629 4.63451 17.4022 4.54543 16.937L7.4919 16.3728ZM6.94857 15.7733C6.89782 15.7578 6.86409 15.7523 6.85506 15.751C6.84403 15.7493 6.84285 15.7496 6.85246 15.7502C6.87339 15.7514 6.9083 15.7515 6.9471 15.7484C6.98858 15.7451 7.00402 15.7408 6.99074 15.744C6.98371 15.7457 6.9514 15.7536 6.90241 15.7729C6.87695 15.7829 6.84019 15.7986 6.79607 15.8218C6.75298 15.8445 6.69164 15.8801 6.62226 15.9327L8.43383 18.324C8.13797 18.5481 7.8195 18.6301 7.69474 18.6602C7.51945 18.7025 7.34211 18.7265 7.18321 18.7391C6.91053 18.7606 6.47592 18.7656 6.07315 18.6427L6.94857 15.7733ZM6.64579 15.9152C6.62844 15.9278 6.55432 15.986 6.4835 16.1017C6.4086 16.2241 6.37771 16.3449 6.36893 16.4292L9.35278 16.74C9.27951 17.4434 8.91282 17.976 8.4103 18.3414L6.64579 15.9152ZM6.37166 16.4048C6.3587 16.5122 6.36929 16.6582 6.43597 16.8104C6.50182 16.9607 6.59621 17.0576 6.66554 17.1096L8.46554 14.7096C9.10192 15.1869 9.44965 15.939 9.35005 16.7643L6.37166 16.4048ZM6.65437 17.1011C6.62989 17.0824 6.6641 17.1107 6.72563 17.1452C6.76004 17.1645 6.80095 17.1847 6.84751 17.2035C6.894 17.2222 6.93766 17.2361 6.9764 17.2461C7.04848 17.2648 7.0932 17.2674 7.07616 17.2659C7.058 17.2643 7.0193 17.2619 6.93058 17.2584L7.04738 14.2607C7.18835 14.2662 7.46395 14.2734 7.72929 14.3421C8.0997 14.4382 8.34448 14.6169 8.47672 14.718L6.65437 17.1011ZM6.96267 17.2593C6.91589 17.2585 6.87914 17.2588 6.8514 17.2597C6.82314 17.2606 6.80885 17.2619 6.80609 17.2622C6.80198 17.2626 6.82069 17.261 6.85559 17.2533C6.87381 17.2493 6.9003 17.2427 6.93305 17.2325C6.96542 17.2223 7.00932 17.2069 7.06078 17.1837L5.82968 14.4479C6.09501 14.3285 6.35241 14.2931 6.49805 14.278C6.66931 14.2604 6.84643 14.2568 7.01529 14.2598L6.96267 17.2593Z" fill="#8E92BC" mask="url(#path-5-inside-1_661_5615)"/>
<path d="M9.62782 16.4649C9.62759 16.465 9.63074 16.4654 9.63796 16.4661C9.63166 16.4652 9.62805 16.4649 9.62782 16.4649ZM17.1926 16.5362L17.1943 16.5349L17.1926 16.5362ZM9.62263 16.5415C9.61099 16.5431 9.61322 16.5435 9.62536 16.5412C9.62433 16.5413 9.62343 16.5414 9.62263 16.5415Z" stroke="#8E92BC" stroke-width="1.5"/>
<path d="M6.62633 19.4641C6.62701 19.4642 6.62802 19.4643 6.62941 19.4644C6.61967 19.463 6.61759 19.4632 6.62633 19.4641ZM6.59676 19.5467C6.59717 19.5468 6.60305 19.5462 6.61316 19.5443C6.60141 19.5456 6.59635 19.5466 6.59676 19.5467Z" stroke="#8E92BC" stroke-width="1.5"/>
</svg>
