<svg width="24" height="24" viewBox="0 0 24 24" fill="none" xmlns="http://www.w3.org/2000/svg">
<path d="M9.5625 1.41547C9.87187 0.787344 10.5609 0.248281 11.2781 0.0748444L10.4206 0.927908C10.2667 1.06541 10.1229 1.20942 9.99559 1.41685C9.96308 1.46981 9.93306 1.52471 9.90474 1.58155L9.5625 1.41547ZM9.5625 1.41547L9.90374 1.58355C9.8532 1.68519 9.80805 1.79302 9.76376 1.90696C9.74545 1.95406 9.72729 2.0022 9.70896 2.05139C9.70475 2.06247 9.7008 2.07285 9.69707 2.0826C9.6211 2.08803 9.52799 2.09158 9.40781 2.09458C9.33219 2.09648 9.24585 2.09815 9.14633 2.09996C9.14615 2.09996 9.14598 2.09996 9.1458 2.09997L8.46562 2.11106L8.28465 2.11401L7.54687 2.12603V2.65297V2.86391V3.14047V3.51359L7.125 3.51542L7.11238 3.51548L6.02957 3.52016L6.02695 3.52017C5.99918 3.52039 5.97143 3.52064 5.94375 3.52092C5.66732 3.52367 5.39748 3.5293 5.17689 3.53702C5.05598 3.54125 4.946 3.54624 4.85614 3.55203C4.78874 3.55636 4.68329 3.5637 4.59619 3.58076C4.58177 3.5835 4.56745 3.58638 4.55321 3.5894L4.4625 3.21078M9.5625 1.41547L9.40781 1.73422H8.46562C7.1625 1.73422 7.125 1.75766 7.125 2.65297V3.14047H6.375H5.94375C5.0625 3.14047 4.68281 3.15922 4.4625 3.21078M4.4625 3.21078L4.55121 3.58983L4.42031 23.9295C3.55781 23.7373 2.90625 23.1702 2.67187 22.4155C2.57812 22.1202 2.57812 21.9467 2.57812 13.7061C2.57812 7.75297 2.59219 5.23109 2.62969 5.05297C2.8125 4.1764 3.5625 3.42641 4.4625 3.21078ZM19.7007 23.1189C19.6718 23.1316 19.6423 23.1439 19.6124 23.1556C19.6121 23.1557 19.6119 23.1558 19.6117 23.1558L19.4292 23.2267L12.163 23.2405C12.1629 23.2405 12.1628 23.2405 12.1626 23.2405C12.1493 23.2405 12.1359 23.2405 12.1226 23.2405C12.1226 23.2405 12.1226 23.2405 12.1225 23.2405C8.83213 23.2452 6.9862 23.2463 5.92489 23.2381C4.82231 23.2297 4.63699 23.2089 4.58164 23.1971L19.7007 23.1189ZM19.7007 23.1189L19.5656 22.7623M19.7007 23.1189L4.17656 22.6217C4.21882 22.6485 4.2536 22.6725 4.28986 22.694C4.61562 22.887 5.061 22.8781 12.1219 22.8655C19.0875 22.8514 19.3453 22.8467 19.5656 22.7623M19.5656 22.7623C19.875 22.6452 20.1703 22.3452 20.2406 22.078C20.2875 21.9139 20.2969 20.0061 20.2875 13.5467L20.2734 5.2264L20.5196 22.4446C20.5194 22.445 20.5192 22.4453 20.519 22.4457C20.4118 22.6545 20.1127 22.9366 19.7019 23.1183L19.5656 22.7623ZM4.65959 3.93554C4.65065 3.93724 4.64249 3.93895 4.63498 3.94068L4.65959 3.93554Z" stroke="white" stroke-width="1.5"/>
<path d="M6.15453 9.38401C6.15452 9.38401 6.15469 9.38428 6.15504 9.38483L6.15453 9.38401ZM9.57868 8.70451C9.57881 8.70434 9.57649 8.70594 9.57137 8.70979C9.576 8.7066 9.57855 8.70468 9.57868 8.70451Z" stroke="white" stroke-width="1.5"/>
<path d="M11.383 10.2128C11.383 10.2128 11.3849 10.2125 11.3882 10.2118C11.3846 10.2124 11.3829 10.2127 11.383 10.2128Z" stroke="white" stroke-width="1.5"/>
<path d="M9.56881 13.263C9.56901 13.2628 9.56586 13.2651 9.55875 13.271C9.56505 13.2662 9.56861 13.2633 9.56881 13.263Z" stroke="white" stroke-width="1.5"/>
<path d="M11.5014 14.4047C11.4305 14.368 11.3717 14.3528 11.3585 14.3494L11.3578 14.3492C11.3366 14.3438 11.322 14.3413 11.3192 14.3408C11.3177 14.3406 11.3169 14.3404 11.3169 14.3404C11.3169 14.3404 11.3239 14.3414 11.3405 14.343C11.3831 14.3472 11.4516 14.352 11.5485 14.3568C11.74 14.3664 12.0096 14.3746 12.3358 14.3813C12.9864 14.3946 13.8405 14.4014 14.6976 14.4014C14.7015 14.4014 14.7054 14.4014 14.7093 14.4014C14.7095 14.4014 14.7096 14.4014 14.7098 14.4014C15.5628 14.4013 16.4131 14.3946 17.0629 14.3813C17.3903 14.3746 17.6615 14.3664 17.8549 14.3568C17.9527 14.352 18.0225 14.3472 18.0667 14.3429C18.0852 14.3411 18.0931 14.34 18.0931 14.34C18.0931 14.34 18.0926 14.3401 18.0919 14.3402L18.0918 14.3402C18.0897 14.3406 18.0771 14.3427 18.0581 14.3473L18.0577 14.3474C18.0456 14.3504 17.9933 14.3633 17.929 14.3941L18.0033 14.5493L18.2531 15.0705C18.5343 14.9346 18.6421 14.5877 18.4921 14.2971C18.4697 14.2537 18.4538 14.217 18.4304 14.186C18.2969 14.0091 17.9194 14.0165 14.7093 14.0205C12.8202 14.0205 11.2265 14.0393 11.1749 14.0627C10.7906 14.2174 10.7765 14.8736 11.1562 15.0705L11.5014 14.4047Z" stroke="white" stroke-width="1.5"/>
<path d="M6.22764 19.1612C6.22785 19.1614 6.22807 19.1616 6.22829 19.1619L6.49659 18.9039M6.22764 19.1612C6.2274 19.1609 6.22717 19.1607 6.22694 19.1604L6.4959 18.9032M6.22764 19.1612C6.11155 19.0405 6.02831 18.9559 5.96347 18.8943C5.89694 18.8311 5.86802 18.8097 5.86118 18.805C5.86108 18.8049 5.86103 18.8049 5.86103 18.8049C5.86103 18.8049 5.86829 18.8097 5.88188 18.8162C5.89745 18.8236 5.91615 18.8306 5.93651 18.836C5.94664 18.8387 5.95557 18.8405 5.96267 18.8417C5.96701 18.8424 5.97066 18.8429 5.97348 18.8433L6.22764 19.1612ZM6.49659 18.9039C6.49636 18.9037 6.49613 18.9034 6.4959 18.9032M6.49659 18.9039L6.76892 18.642M6.49659 18.9039C6.55663 18.9657 6.62598 19.0362 6.70615 19.117L6.70722 19.1181C6.87356 19.2866 7.03577 19.4441 7.16736 19.5661L6.76892 18.642M6.4959 18.9032L6.76892 18.642M6.4959 18.9032C6.34478 18.7477 6.25268 18.6477 6.1953 18.5782C6.16877 18.546 6.15744 18.5293 6.15503 18.5256M6.76892 18.642L6.19812 18.6442C6.18427 18.5756 6.15891 18.5319 6.15503 18.5256M6.15503 18.5256C6.15468 18.5251 6.15452 18.5248 6.15453 18.5248L6.15503 18.5256ZM9.56222 17.8606C9.56175 17.8609 9.56123 17.8613 9.56067 17.8617C9.57204 17.8541 9.57362 17.8522 9.56222 17.8606Z" stroke="white" stroke-width="1.5"/>
<mask id="path-7-inside-1_661_5599" fill="white">
<path d="M11.222 18.6094C11.1704 18.6282 11.0673 18.7125 11.0017 18.7969C10.7392 19.1063 10.8938 19.575 11.2876 19.6875C11.5501 19.7578 17.972 19.7485 18.1876 19.6735C18.2767 19.6407 18.3938 19.5469 18.4548 19.4578C18.6423 19.1766 18.5767 18.8672 18.286 18.6703L18.1267 18.5625L14.7235 18.5672C12.8532 18.5672 11.2782 18.586 11.222 18.6094Z"/>
</mask>
<path d="M11.222 18.6094L11.7989 19.994L11.767 20.0073L11.7346 20.0191L11.222 18.6094ZM11.0017 18.7969L12.1857 19.7178L12.1661 19.743L12.1454 19.7674L11.0017 18.7969ZM11.2876 19.6875L10.8995 21.1365L10.8875 21.1332L10.8755 21.1298L11.2876 19.6875ZM18.1876 19.6735L18.7061 21.081L18.6933 21.0857L18.6804 21.0902L18.1876 19.6735ZM18.4548 19.4578L19.7029 20.2899L19.6978 20.2974L19.6927 20.3049L18.4548 19.4578ZM18.286 18.6703L19.1265 17.4279L19.1273 17.4285L18.286 18.6703ZM18.1267 18.5625L18.1246 17.0625L18.5854 17.0619L18.9671 17.3201L18.1267 18.5625ZM14.7235 18.5672L14.7256 20.0672H14.7235V18.5672ZM11.7346 20.0191C11.8169 19.9892 11.8787 19.9579 11.9144 19.9386C11.9528 19.9178 11.9825 19.8991 12.0023 19.886C12.0413 19.8602 12.0676 19.8391 12.0823 19.8268C12.1068 19.8061 12.1422 19.7737 12.1857 19.7178L9.81762 17.876C9.9267 17.7358 10.0465 17.6189 10.1519 17.5303C10.217 17.4756 10.4231 17.3038 10.7094 17.1997L11.7346 20.0191ZM12.1454 19.7674C12.6333 19.1924 12.2862 18.4128 11.6997 18.2453L10.8755 21.1298C9.50149 20.7372 8.84502 19.0202 9.85789 17.8264L12.1454 19.7674ZM11.6757 18.2386C11.5143 18.1954 11.3834 18.1956 11.4979 18.2026C11.5376 18.205 11.6031 18.208 11.6978 18.2109C11.8847 18.2168 12.1468 18.2218 12.4644 18.2257C13.0975 18.2334 13.9242 18.2365 14.7525 18.235C15.581 18.2335 16.4043 18.2276 17.0311 18.2174C17.3457 18.2123 17.6032 18.2062 17.7844 18.1995C17.8766 18.1961 17.9374 18.1929 17.9716 18.1905C17.9899 18.1892 17.987 18.1891 17.9711 18.191C17.9633 18.1919 17.9402 18.1948 17.9081 18.2005C17.8896 18.2038 17.8032 18.219 17.6948 18.2567L18.6804 21.0902C18.4993 21.1532 18.3322 21.1692 18.3281 21.1697C18.2752 21.176 18.224 21.1801 18.1833 21.183C18.0996 21.1889 18.0001 21.1936 17.8956 21.1975C17.6833 21.2053 17.4016 21.2118 17.0797 21.217C16.4335 21.2275 15.5946 21.2335 14.7578 21.235C13.9209 21.2365 13.0794 21.2334 12.4278 21.2254C12.1031 21.2215 11.8188 21.2162 11.6034 21.2095C11.497 21.2061 11.3974 21.2021 11.3141 21.197C11.3056 21.1965 11.0937 21.1885 10.8995 21.1365L11.6757 18.2386ZM17.669 18.266C17.5803 18.2987 17.5173 18.3337 17.4821 18.3549C17.4439 18.378 17.4142 18.3997 17.3912 18.4182C17.3555 18.447 17.2888 18.5056 17.2168 18.6108L19.6927 20.3049C19.5598 20.4992 19.4041 20.6492 19.2722 20.7553C19.1465 20.8565 18.953 20.9901 18.7061 21.081L17.669 18.266ZM17.2067 18.6258C17.1091 18.7722 17.0158 19.0325 17.0828 19.3459C17.1484 19.6527 17.3294 19.8341 17.4448 19.9122L19.1273 17.4285C19.5333 17.7035 19.8924 18.138 20.0166 18.719C20.1422 19.3067 19.9879 19.8623 19.7029 20.2899L17.2067 18.6258ZM17.4456 19.9128L17.2862 19.805L18.9671 17.3201L19.1265 17.4279L17.4456 19.9128ZM18.1287 20.0625L14.7256 20.0672L14.7215 17.0672L18.1246 17.0625L18.1287 20.0625ZM14.7235 20.0672C13.7926 20.0672 12.9375 20.0719 12.3105 20.0794C11.996 20.0832 11.7443 20.0876 11.5708 20.0924C11.4825 20.0948 11.4241 20.097 11.3911 20.0988C11.3728 20.0997 11.3758 20.0999 11.3911 20.0984C11.3974 20.0978 11.4238 20.0953 11.4603 20.0897C11.4785 20.0869 11.5125 20.0813 11.5552 20.0717C11.5855 20.0649 11.6818 20.0428 11.7989 19.994L10.645 17.2248C10.7639 17.1753 10.8627 17.1525 10.8962 17.145C10.9422 17.1346 10.9801 17.1283 11.003 17.1248C11.0489 17.1177 11.0875 17.1137 11.1089 17.1117C11.1544 17.1074 11.1989 17.1048 11.2326 17.103C11.3039 17.0992 11.3923 17.0961 11.4888 17.0935C11.6849 17.0881 11.9544 17.0835 12.2745 17.0796C12.9166 17.0719 13.7842 17.0672 14.7235 17.0672V20.0672Z" fill="white" mask="url(#path-7-inside-1_661_5599)"/>
</svg>
