<svg width="15" height="15" viewBox="0 0 15 15" fill="none" xmlns="http://www.w3.org/2000/svg">
<g clip-path="url(#clip0_643_8334)">
<path d="M11.5669 15C8.85748 15 6.14772 15 3.43835 15C3.40124 14.991 3.36412 14.9773 3.32662 14.9734C1.49225 14.7754 0.0324849 13.1867 0.021938 11.3363C0.00787554 8.77891 0.0102189 6.22109 0.021547 3.66328C0.0285783 2.1125 1.07311 0.694141 2.54655 0.207813C2.83522 0.1125 3.14069 0.0679687 3.43835 0C6.14772 0 8.85748 0 11.5669 0C11.5993 0.00859375 11.6313 0.0214849 11.6645 0.0250006C13.1911 0.202735 14.4344 1.26094 14.8465 2.74219C14.909 2.96641 14.9419 3.19883 14.9883 3.42773C14.9883 6.14258 14.9883 8.85742 14.9883 11.5723C14.9794 11.6098 14.9661 11.6469 14.9618 11.6852C14.7942 13.1773 13.7204 14.4492 12.279 14.8512C12.0458 14.916 11.8044 14.9512 11.5669 15ZM13.738 7.49766C13.738 6.28203 13.7387 5.06602 13.7372 3.85039C13.7368 3.7043 13.7376 3.55586 13.7149 3.4125C13.509 2.11523 12.5024 1.2543 11.1883 1.25352C8.7321 1.25156 6.27623 1.25273 3.81998 1.25391C3.68873 1.25391 3.55553 1.2543 3.42662 1.27461C2.13522 1.47695 1.2692 2.48984 1.26803 3.80391C1.26569 6.26953 1.26725 8.73555 1.26842 11.2012C1.26842 11.3328 1.26998 11.466 1.29108 11.5953C1.4985 12.8828 2.50592 13.7457 3.80983 13.7473C6.27077 13.75 8.7317 13.7492 11.1926 13.7457C11.3813 13.7453 11.5743 13.7328 11.7583 13.693C12.9454 13.4355 13.734 12.4418 13.7376 11.2039C13.7403 9.96836 13.738 8.73281 13.738 7.49766Z" fill="white"/>
<path d="M6.88141 8.12254C6.69625 8.12254 6.53609 8.12254 6.37594 8.12254C5.70367 8.12215 5.03141 8.12528 4.35953 8.11903C4.0857 8.11668 3.86422 7.93582 3.78766 7.67723C3.71266 7.4241 3.79078 7.14442 4.01539 7.00574C4.13649 6.93074 4.29508 6.88504 4.43766 6.88309C5.18766 6.87137 5.93805 6.87762 6.68805 6.87762C6.74547 6.87762 6.80289 6.87762 6.8818 6.87762C6.8818 6.80653 6.8818 6.75028 6.8818 6.69363C6.8818 5.92254 6.87789 5.15145 6.88375 4.38035C6.88727 3.93387 7.30406 3.64129 7.71266 3.7866C7.97047 3.8784 8.12321 4.10614 8.1236 4.41395C8.12555 5.17059 8.12438 5.92684 8.12438 6.68348C8.12438 6.7409 8.12438 6.79871 8.12438 6.87801C8.19508 6.87801 8.25133 6.87801 8.30758 6.87801C9.07711 6.87801 9.84703 6.8741 10.6166 6.87996C11.056 6.88348 11.347 7.28934 11.2134 7.69637C11.1263 7.96239 10.8951 8.12137 10.583 8.12215C9.82789 8.1241 9.07281 8.12293 8.31774 8.12293C8.26031 8.12293 8.20289 8.12293 8.12399 8.12293C8.12399 8.19403 8.12399 8.25067 8.12399 8.30731C8.12399 9.0784 8.12828 9.8495 8.12164 10.6206C8.11813 11.0612 7.71266 11.3518 7.30602 11.2182C7.04508 11.1323 6.88297 10.9022 6.8818 10.6011C6.87945 9.83973 6.88102 9.0784 6.88102 8.31707C6.88141 8.25887 6.88141 8.20145 6.88141 8.12254Z" fill="white"/>
</g>
<defs>
<clipPath id="clip0_643_8334">
<rect width="15" height="15" fill="white"/>
</clipPath>
</defs>
</svg>
