<svg width="24" height="24" viewBox="0 0 24 24" fill="none" xmlns="http://www.w3.org/2000/svg">
<g clip-path="url(#clip0_661_5624)">
<mask id="path-1-inside-1_661_5624" fill="white">
<path d="M5.78906 0.0800772C5.15625 0.309765 4.82813 0.811327 4.82813 1.55195V1.8707L2.94375 1.88476C1.07813 1.89883 1.05 1.89883 0.834375 2.00664C0.553125 2.14726 0.271875 2.42851 0.13125 2.70976L0.0234375 2.93008V12.0004V21.0707L0.13125 21.291C0.271875 21.5723 0.553125 21.8535 0.834375 21.9941L1.05469 22.102L4.50938 22.116L7.96406 22.1254L8.11875 21.9895C8.24531 21.877 8.27344 21.8207 8.27344 21.6566C8.27344 21.4926 8.24531 21.4363 8.11875 21.3238L7.96875 21.1879H4.6125H1.25625L1.09688 21.0285L0.9375 20.8691V12.0004V3.13164L1.09688 2.97226L1.25625 2.81289H3.0375H4.81875L4.8375 3.2207C4.87031 3.88164 5.10938 4.28476 5.61563 4.5332C5.83594 4.64101 5.94375 4.66445 6.23438 4.66445C7.06406 4.66445 7.58438 4.12539 7.63125 3.2207L7.65 2.81289H11.4375H15.225L15.2438 3.2207C15.2672 3.68476 15.3656 3.95664 15.6047 4.2332C15.9891 4.66445 16.7156 4.80039 17.2594 4.5332C17.7656 4.28476 18.0047 3.88164 18.0375 3.2207L18.0563 2.81289H19.8375H21.6188L21.7781 2.97226L21.9375 3.13164V4.37851V5.62539H13.0313C3.3375 5.62539 3.92813 5.60664 3.80625 5.8832C3.73594 6.03789 3.73594 6.15039 3.80625 6.30508C3.92813 6.58164 3.3375 6.56289 13.0313 6.56289H21.9375V11.1988V15.8395L21.5063 15.6332C21.2672 15.5207 20.9719 15.4035 20.85 15.3707L20.625 15.3191V11.7848C20.625 9.15039 20.6109 8.22226 20.5688 8.1332C20.4469 7.86133 21.0281 7.87539 11.4375 7.87539C1.84688 7.87539 2.42813 7.86133 2.30625 8.1332C2.22656 8.31133 2.22656 19.4395 2.30625 19.6176C2.42813 19.8895 2.07188 19.8754 8.90156 19.8754H15.1828L15.2109 20.0488C15.2438 20.2645 15.4219 21.0473 15.4547 21.127C15.4734 21.1738 15.0563 21.1879 13.4766 21.1879C11.3484 21.1879 11.2781 21.1926 11.1563 21.4176C11.0953 21.5348 11.0953 21.7785 11.1563 21.8957C11.2781 22.1207 11.3297 22.1254 13.7156 22.1254H15.9469L16.3688 22.5707C16.9969 23.2363 17.6625 23.6348 18.5156 23.8645C19.0922 24.0191 20.1047 24.0191 20.6719 23.8645C21.9563 23.5176 22.9875 22.6691 23.5547 21.4926C23.8781 20.827 23.9719 20.4004 23.9719 19.5941C23.9766 19.0316 23.9578 18.8441 23.8688 18.516C23.7328 18.0051 23.4094 17.3441 23.1094 16.9504L22.875 16.6457L22.8656 9.78789L22.8516 2.93008L22.7438 2.70976C22.5984 2.41914 22.3359 2.15195 22.05 2.01133L21.8203 1.89883L19.9406 1.88476L18.0563 1.8707L18.0375 1.46289C18.0047 0.80664 17.7656 0.403515 17.2594 0.155077C17.0391 0.0472647 16.9313 0.0238272 16.6406 0.0238272C15.8109 0.0238272 15.2906 0.56289 15.2438 1.46289L15.225 1.87539H11.4375H7.65L7.63125 1.46289C7.60781 1.00351 7.50938 0.73164 7.27031 0.455077C6.9375 0.0753897 6.27188 -0.0933603 5.78906 0.0800772ZM6.46406 1.00351C6.68438 1.1207 6.70313 1.2332 6.70313 2.34883C6.70313 3.15039 6.68906 3.4082 6.6375 3.51133C6.47344 3.8207 5.99531 3.8207 5.83125 3.51133C5.7375 3.32851 5.7375 1.3457 5.83125 1.17695C5.95313 0.95664 6.225 0.88164 6.46406 1.00351ZM16.8703 1.00351C17.0906 1.1207 17.1094 1.2332 17.1094 2.34883C17.1094 3.15039 17.0953 3.4082 17.0438 3.51133C16.8797 3.8207 16.4016 3.8207 16.2375 3.51133C16.1438 3.32851 16.1438 1.3457 16.2375 1.17695C16.3594 0.95664 16.6313 0.88164 16.8703 1.00351ZM5.71875 10.1957V11.5785H4.45313H3.1875V10.1957V8.81289H4.45313H5.71875V10.1957ZM9.23438 10.1957V11.5785H7.94531H6.65625V10.1957V8.81289H7.94531H9.23438V10.1957ZM12.7031 10.1957V11.5785H11.4375H10.1719V10.1957V8.81289H11.4375H12.7031V10.1957ZM16.2188 10.1957V11.5785H14.9297H13.6406V10.1957V8.81289H14.9297H16.2188V10.1957ZM19.6875 10.1957V11.5785H18.4219H17.1563V10.1957V8.81289H18.4219H19.6875V10.1957ZM5.71875 13.8754V15.2348H4.45313H3.1875V13.8754V12.516H4.45313H5.71875V13.8754ZM9.23438 13.8754V15.2348H7.94531H6.65625V13.8754V12.516H7.94531H9.23438V13.8754ZM12.7031 13.8754V15.2348H11.4375H10.1719V13.8754V12.516H11.4375H12.7031V13.8754ZM16.2188 13.8754V15.2348H14.9297H13.6406V13.8754V12.516H14.9297H16.2188V13.8754ZM19.6875 13.8473V15.1738L19.3031 15.202C19.0875 15.2207 18.5203 15.2348 18.0375 15.2348H17.1563V13.8754V12.516H18.4219H19.6875V13.8473ZM20.5547 16.266C21.4547 16.5473 22.2375 17.1754 22.6266 17.9301C22.95 18.5582 23.0391 18.9145 23.0391 19.5941C23.0391 20.2738 22.95 20.6348 22.6266 21.2582C22.3547 21.7785 21.7781 22.3551 21.2578 22.627C20.6344 22.9504 20.2734 23.0395 19.5938 23.0395C19.1109 23.0395 18.9469 23.0207 18.6563 22.927C17.4563 22.5566 16.6359 21.7363 16.2656 20.5551C15.8578 19.2379 16.3875 17.6535 17.5219 16.8191C17.8641 16.566 18.4641 16.2895 18.8672 16.2004C19.3266 16.0973 20.1188 16.1301 20.5547 16.266ZM5.71875 17.5551V18.9379H4.45313H3.1875V17.5551V16.1723H4.45313H5.71875V17.5551ZM9.23438 17.5551V18.9379H7.94531H6.65625V17.5551V16.1723H7.94531H9.23438V17.5551ZM12.7031 17.5551V18.9379H11.4375H10.1719V17.5551V16.1723H11.4375H12.7031V17.5551ZM16.2188 16.4676C16.2188 16.7395 16.2047 16.7816 16.0266 17.016C15.9234 17.1566 15.7453 17.4613 15.6328 17.6957C15.4547 18.066 15.3844 18.277 15.2625 18.8066L15.2344 18.9379H14.4375H13.6406V17.5551V16.1723H14.9297H16.2188V16.4676Z"/>
</mask>
<path d="M5.78906 0.0800772C5.15625 0.309765 4.82813 0.811327 4.82813 1.55195V1.8707L2.94375 1.88476C1.07813 1.89883 1.05 1.89883 0.834375 2.00664C0.553125 2.14726 0.271875 2.42851 0.13125 2.70976L0.0234375 2.93008V12.0004V21.0707L0.13125 21.291C0.271875 21.5723 0.553125 21.8535 0.834375 21.9941L1.05469 22.102L4.50938 22.116L7.96406 22.1254L8.11875 21.9895C8.24531 21.877 8.27344 21.8207 8.27344 21.6566C8.27344 21.4926 8.24531 21.4363 8.11875 21.3238L7.96875 21.1879H4.6125H1.25625L1.09688 21.0285L0.9375 20.8691V12.0004V3.13164L1.09688 2.97226L1.25625 2.81289H3.0375H4.81875L4.8375 3.2207C4.87031 3.88164 5.10938 4.28476 5.61563 4.5332C5.83594 4.64101 5.94375 4.66445 6.23438 4.66445C7.06406 4.66445 7.58438 4.12539 7.63125 3.2207L7.65 2.81289H11.4375H15.225L15.2438 3.2207C15.2672 3.68476 15.3656 3.95664 15.6047 4.2332C15.9891 4.66445 16.7156 4.80039 17.2594 4.5332C17.7656 4.28476 18.0047 3.88164 18.0375 3.2207L18.0563 2.81289H19.8375H21.6188L21.7781 2.97226L21.9375 3.13164V4.37851V5.62539H13.0313C3.3375 5.62539 3.92813 5.60664 3.80625 5.8832C3.73594 6.03789 3.73594 6.15039 3.80625 6.30508C3.92813 6.58164 3.3375 6.56289 13.0313 6.56289H21.9375V11.1988V15.8395L21.5063 15.6332C21.2672 15.5207 20.9719 15.4035 20.85 15.3707L20.625 15.3191V11.7848C20.625 9.15039 20.6109 8.22226 20.5688 8.1332C20.4469 7.86133 21.0281 7.87539 11.4375 7.87539C1.84688 7.87539 2.42813 7.86133 2.30625 8.1332C2.22656 8.31133 2.22656 19.4395 2.30625 19.6176C2.42813 19.8895 2.07188 19.8754 8.90156 19.8754H15.1828L15.2109 20.0488C15.2438 20.2645 15.4219 21.0473 15.4547 21.127C15.4734 21.1738 15.0563 21.1879 13.4766 21.1879C11.3484 21.1879 11.2781 21.1926 11.1563 21.4176C11.0953 21.5348 11.0953 21.7785 11.1563 21.8957C11.2781 22.1207 11.3297 22.1254 13.7156 22.1254H15.9469L16.3688 22.5707C16.9969 23.2363 17.6625 23.6348 18.5156 23.8645C19.0922 24.0191 20.1047 24.0191 20.6719 23.8645C21.9563 23.5176 22.9875 22.6691 23.5547 21.4926C23.8781 20.827 23.9719 20.4004 23.9719 19.5941C23.9766 19.0316 23.9578 18.8441 23.8688 18.516C23.7328 18.0051 23.4094 17.3441 23.1094 16.9504L22.875 16.6457L22.8656 9.78789L22.8516 2.93008L22.7438 2.70976C22.5984 2.41914 22.3359 2.15195 22.05 2.01133L21.8203 1.89883L19.9406 1.88476L18.0563 1.8707L18.0375 1.46289C18.0047 0.80664 17.7656 0.403515 17.2594 0.155077C17.0391 0.0472647 16.9313 0.0238272 16.6406 0.0238272C15.8109 0.0238272 15.2906 0.56289 15.2438 1.46289L15.225 1.87539H11.4375H7.65L7.63125 1.46289C7.60781 1.00351 7.50938 0.73164 7.27031 0.455077C6.9375 0.0753897 6.27188 -0.0933603 5.78906 0.0800772ZM6.46406 1.00351C6.68438 1.1207 6.70313 1.2332 6.70313 2.34883C6.70313 3.15039 6.68906 3.4082 6.6375 3.51133C6.47344 3.8207 5.99531 3.8207 5.83125 3.51133C5.7375 3.32851 5.7375 1.3457 5.83125 1.17695C5.95313 0.95664 6.225 0.88164 6.46406 1.00351ZM16.8703 1.00351C17.0906 1.1207 17.1094 1.2332 17.1094 2.34883C17.1094 3.15039 17.0953 3.4082 17.0438 3.51133C16.8797 3.8207 16.4016 3.8207 16.2375 3.51133C16.1438 3.32851 16.1438 1.3457 16.2375 1.17695C16.3594 0.95664 16.6313 0.88164 16.8703 1.00351ZM5.71875 10.1957V11.5785H4.45313H3.1875V10.1957V8.81289H4.45313H5.71875V10.1957ZM9.23438 10.1957V11.5785H7.94531H6.65625V10.1957V8.81289H7.94531H9.23438V10.1957ZM12.7031 10.1957V11.5785H11.4375H10.1719V10.1957V8.81289H11.4375H12.7031V10.1957ZM16.2188 10.1957V11.5785H14.9297H13.6406V10.1957V8.81289H14.9297H16.2188V10.1957ZM19.6875 10.1957V11.5785H18.4219H17.1563V10.1957V8.81289H18.4219H19.6875V10.1957ZM5.71875 13.8754V15.2348H4.45313H3.1875V13.8754V12.516H4.45313H5.71875V13.8754ZM9.23438 13.8754V15.2348H7.94531H6.65625V13.8754V12.516H7.94531H9.23438V13.8754ZM12.7031 13.8754V15.2348H11.4375H10.1719V13.8754V12.516H11.4375H12.7031V13.8754ZM16.2188 13.8754V15.2348H14.9297H13.6406V13.8754V12.516H14.9297H16.2188V13.8754ZM19.6875 13.8473V15.1738L19.3031 15.202C19.0875 15.2207 18.5203 15.2348 18.0375 15.2348H17.1563V13.8754V12.516H18.4219H19.6875V13.8473ZM20.5547 16.266C21.4547 16.5473 22.2375 17.1754 22.6266 17.9301C22.95 18.5582 23.0391 18.9145 23.0391 19.5941C23.0391 20.2738 22.95 20.6348 22.6266 21.2582C22.3547 21.7785 21.7781 22.3551 21.2578 22.627C20.6344 22.9504 20.2734 23.0395 19.5938 23.0395C19.1109 23.0395 18.9469 23.0207 18.6563 22.927C17.4563 22.5566 16.6359 21.7363 16.2656 20.5551C15.8578 19.2379 16.3875 17.6535 17.5219 16.8191C17.8641 16.566 18.4641 16.2895 18.8672 16.2004C19.3266 16.0973 20.1188 16.1301 20.5547 16.266ZM5.71875 17.5551V18.9379H4.45313H3.1875V17.5551V16.1723H4.45313H5.71875V17.5551ZM9.23438 17.5551V18.9379H7.94531H6.65625V17.5551V16.1723H7.94531H9.23438V17.5551ZM12.7031 17.5551V18.9379H11.4375H10.1719V17.5551V16.1723H11.4375H12.7031V17.5551ZM16.2188 16.4676C16.2188 16.7395 16.2047 16.7816 16.0266 17.016C15.9234 17.1566 15.7453 17.4613 15.6328 17.6957C15.4547 18.066 15.3844 18.277 15.2625 18.8066L15.2344 18.9379H14.4375H13.6406V17.5551V16.1723H14.9297H16.2188V16.4676Z" stroke="#8E92BC" stroke-width="3" mask="url(#path-1-inside-1_661_5624)"/>
<path d="M21.4791 19.0131C21.4803 19.0123 21.481 19.0118 21.481 19.0118C21.481 19.0118 21.4804 19.0122 21.4791 19.0131Z" stroke="#8E92BC" stroke-width="1.5"/>
<path d="M2.47834 6.34613C2.47911 6.3457 2.47989 6.34525 2.48066 6.34481C2.5388 6.31123 2.5904 6.2516 2.61667 6.17997C2.62736 6.15079 2.63262 6.12339 2.63422 6.09844C2.63618 6.06765 2.63257 6.04059 2.62671 6.01853C2.6161 5.97855 2.59163 5.93025 2.54159 5.88753C2.48529 5.83945 2.41174 5.8125 2.34361 5.8125C2.28126 5.8125 2.23392 5.82687 2.19978 5.84377C2.19942 5.84395 2.19907 5.84413 2.19871 5.84431C2.16926 5.85905 2.14978 5.87563 2.13909 5.88625C2.1167 5.90849 2.06236 5.97479 2.06236 6.09844C2.06236 6.21581 2.13044 6.30398 2.19987 6.34468C2.23846 6.3673 2.28911 6.38214 2.34361 6.38154C2.38675 6.38107 2.43231 6.37092 2.47622 6.34729C2.47693 6.34691 2.47763 6.34652 2.47834 6.34613Z" stroke="#8E92BC" stroke-width="1.5"/>
<path d="M9.81663 21.9224C9.81751 21.9219 9.81844 21.9213 9.81943 21.9207C9.83301 21.9121 9.85729 21.8947 9.88382 21.8661C9.90208 21.8464 9.9214 21.8214 9.93903 21.7904C9.97812 21.7217 9.9836 21.6673 9.9843 21.6569C9.98431 21.6569 9.98431 21.6568 9.98431 21.6567C9.98373 21.6473 9.97855 21.5892 9.93573 21.5168C9.91904 21.4885 9.9011 21.4656 9.88418 21.4474C9.84943 21.4099 9.819 21.3923 9.8125 21.3888C9.81229 21.3887 9.81203 21.3886 9.81173 21.3885L9.68255 21.6396L9.67431 21.6557L9.67366 21.6569L9.67079 21.6625L9.64036 21.7217L9.54234 21.9123C9.56854 21.9243 9.60549 21.9369 9.65265 21.9422C9.73227 21.9512 9.78828 21.9337 9.80987 21.9252C9.81274 21.9241 9.81501 21.9231 9.81663 21.9224ZM9.50367 21.8907C9.51131 21.8959 9.52415 21.9039 9.54203 21.9121L9.63827 21.724L9.67026 21.6615L9.6726 21.6569L9.67376 21.6547L9.68185 21.6389L9.81026 21.3879C9.79685 21.3826 9.73826 21.3624 9.65116 21.3732C9.6019 21.3793 9.56363 21.3928 9.53717 21.4052C9.53647 21.4056 9.53578 21.4059 9.5351 21.4062C9.52039 21.4132 9.50952 21.4198 9.50263 21.4244C9.50094 21.4263 9.4991 21.4286 9.49711 21.431C9.48239 21.4492 9.4601 21.4804 9.43976 21.5237C9.41251 21.5817 9.40279 21.6323 9.39953 21.6569C9.40279 21.6816 9.41251 21.7321 9.43976 21.7901C9.4601 21.8334 9.48239 21.8647 9.49711 21.8828C9.49951 21.8858 9.50171 21.8884 9.50367 21.8907ZM9.39801 21.6729C9.39805 21.6729 9.39818 21.6714 9.39828 21.6681C9.39803 21.6712 9.39797 21.6728 9.39801 21.6729ZM9.39828 21.6457C9.39818 21.6424 9.39805 21.6409 9.39801 21.641C9.39797 21.641 9.39803 21.6427 9.39828 21.6457Z" stroke="#8E92BC" stroke-width="1.5"/>
</g>
<defs>
<clipPath id="clip0_661_5624">
<rect width="24" height="24" fill="white"/>
</clipPath>
</defs>
</svg>
