<svg width="24" height="24" viewBox="0 0 24 24" fill="none" xmlns="http://www.w3.org/2000/svg">
<g clip-path="url(#clip0_661_5587)">
<mask id="path-1-inside-1_661_5587" fill="white">
<path d="M4.05937 0.0703139C3.79687 0.164064 3.55781 0.375001 3.42187 0.637501C3.32344 0.829689 3.3 0.942189 3.29062 1.36875L3.27187 1.875H2.32969C1.43906 1.875 1.36875 1.88438 1.14844 1.9875C0.890625 2.10469 0.65625 2.34375 0.525 2.61563C0.45 2.77969 0.445312 3.29063 0.445312 11.1797C0.445312 18.825 0.45 19.5844 0.520312 19.7391C0.6375 19.9875 0.867187 20.2266 1.11562 20.3484L1.33594 20.4609L6.54844 20.475L11.7609 20.4891L11.9297 20.8031C12.3234 21.5531 13.1391 22.4438 13.8844 22.9359C14.9859 23.6625 16.0078 23.9719 17.3203 23.9766C18.1687 23.9766 18.5578 23.9203 19.2469 23.6953C22.6734 22.575 24.4219 18.8719 23.1141 15.4922C22.7391 14.5219 21.9141 13.4344 21.1125 12.8625L20.8641 12.6797L20.85 7.75781L20.8359 2.83594L20.7281 2.60156C20.5875 2.29219 20.4187 2.12344 20.1328 1.9875C19.9125 1.87969 19.8516 1.875 18.9516 1.875H18V1.4625C18 0.778126 17.8312 0.407814 17.4141 0.164064C16.9828 -0.0937486 16.4531 -0.0281236 16.0687 0.318751C15.7781 0.581251 15.7312 0.707814 15.7031 1.3125L15.6797 1.85156H10.6406H5.60156L5.57812 1.3125C5.55937 0.867189 5.53594 0.745314 5.45156 0.609376C5.1375 0.103126 4.575 -0.112499 4.05937 0.0703139ZM4.63594 0.820314C4.71094 0.857814 4.78125 0.923439 4.8 0.960939C4.81406 1.00313 4.82812 1.58438 4.82812 2.25469V3.47344L4.71094 3.58594C4.55156 3.75 4.34531 3.74063 4.16719 3.56719L4.03125 3.43125V2.22656V1.02188L4.16719 0.885939C4.32187 0.735939 4.43906 0.717189 4.63594 0.820314ZM17.1141 0.885939L17.25 1.02188V2.22656V3.43125L17.1141 3.56719C16.9359 3.74063 16.7297 3.75 16.5703 3.58594L16.4531 3.47344V2.22656V0.979689L16.5703 0.867189C16.7297 0.703126 16.9359 0.712501 17.1141 0.885939ZM3.28125 3.03281C3.28125 3.53438 3.33281 3.73594 3.52969 3.99375C3.9375 4.5375 4.73437 4.60313 5.22187 4.13438C5.50781 3.85781 5.57812 3.66094 5.57812 3.10313V2.625H10.6406H15.7031V3.10313C15.7031 3.68438 15.7781 3.87656 16.0922 4.15313C16.4531 4.47188 16.8984 4.5375 17.325 4.34063C17.7891 4.125 18 3.7125 18 3.01406V2.625H18.9047H19.8094L19.95 2.77031L20.0859 2.91094L20.1 4.12969L20.1141 5.34375H10.6406H1.16719L1.18125 4.12969L1.19531 2.91094L1.33125 2.77031L1.47187 2.625H2.37656H3.28125V3.03281ZM20.1094 9.16875C20.1094 12.0328 20.1047 12.1969 20.0297 12.1734C19.9828 12.1594 19.7531 12.0703 19.5234 11.9813C18.8062 11.7047 18.2391 11.6063 17.3437 11.6109C16.5141 11.6109 16.1391 11.6672 15.4453 11.8922C12.8719 12.7313 11.1562 15.0891 11.1562 17.7844C11.1562 18.3656 11.2406 19.0172 11.3672 19.4297C11.4047 19.5563 11.4375 19.6781 11.4375 19.7016C11.4375 19.7203 9.19219 19.7297 6.44531 19.725L1.45312 19.7109L1.32656 19.5797L1.19531 19.4531L1.18125 12.7969L1.17187 6.14063H10.6406H20.1094V9.16875ZM17.1281 13.2516C17.2359 13.3406 17.2969 13.3641 17.4094 13.3406C17.6531 13.2938 17.7187 13.1672 17.7187 12.7359V12.3609L18.0609 12.3891C18.7687 12.45 19.7625 12.8344 20.4562 13.3125C20.9719 13.6688 20.9625 13.6453 20.6531 13.9641C20.3484 14.2875 20.3109 14.4563 20.5078 14.6484C20.7047 14.8453 20.8828 14.7984 21.2437 14.4469C21.4312 14.2641 21.4734 14.2453 21.5391 14.2969C21.6469 14.3859 22.0922 15.0703 22.2562 15.3984C22.5141 15.9188 22.7812 16.8891 22.7812 17.3016V17.4375H22.3875C22.0172 17.4375 21.9844 17.4469 21.8953 17.5594C21.7594 17.7281 21.7687 17.9109 21.9187 18.0516C22.0219 18.1453 22.0969 18.1641 22.4156 18.1828L22.7906 18.1969L22.7625 18.4781C22.6547 19.4063 22.2281 20.4234 21.6187 21.1781L21.4594 21.3797L21.1594 21.0891C20.8828 20.8266 20.8406 20.8031 20.7047 20.8313C20.5172 20.8688 20.3906 21.0141 20.3906 21.1969C20.3906 21.3 20.4562 21.4031 20.6484 21.6047C20.7891 21.7547 20.9062 21.8906 20.9062 21.9047C20.9062 21.9469 20.4 22.3219 20.0859 22.5141C19.5516 22.8328 18.6047 23.1469 17.9672 23.2172L17.7187 23.2453V22.875C17.7187 22.4344 17.7 22.3781 17.5266 22.2891C17.3391 22.1906 17.2594 22.2 17.1047 22.3547C16.9781 22.4859 16.9687 22.5141 16.9687 22.8703V23.2453L16.8422 23.2266C16.7672 23.2172 16.5656 23.1844 16.3828 23.1563C15.6609 23.0438 14.7234 22.6359 14.0906 22.1625L13.7812 21.9281L14.0391 21.6469C14.2594 21.4125 14.2969 21.3422 14.2969 21.1875C14.2969 21.0469 14.2687 20.9859 14.175 20.9109C13.9687 20.7516 13.8516 20.7844 13.5234 21.0938L13.2281 21.3797L12.9891 21.0609C12.4406 20.325 12.0375 19.3406 11.9297 18.4547L11.9016 18.1875H12.2016C12.7125 18.1875 12.8906 18.0797 12.8906 17.7703C12.8906 17.5125 12.7594 17.4375 12.3 17.4375H11.8969L11.9297 17.1422C12.0234 16.3125 12.4781 15.1875 12.9891 14.5172L13.2281 14.1984L13.5234 14.4844C13.8516 14.7938 13.9687 14.8266 14.175 14.6672C14.2687 14.5969 14.2969 14.5313 14.2969 14.3953C14.2969 14.25 14.2594 14.1844 14.0391 13.9688C13.8984 13.8281 13.7812 13.7016 13.7812 13.6828C13.7812 13.6313 14.2547 13.2891 14.6484 13.0641C15.2766 12.6984 15.9891 12.4547 16.65 12.3844L16.9453 12.3516L16.9687 12.7406C16.9922 13.1016 17.0016 13.1438 17.1281 13.2516Z"/>
</mask>
<path d="M4.05937 0.0703139C3.79687 0.164064 3.55781 0.375001 3.42187 0.637501C3.32344 0.829689 3.3 0.942189 3.29062 1.36875L3.27187 1.875H2.32969C1.43906 1.875 1.36875 1.88438 1.14844 1.9875C0.890625 2.10469 0.65625 2.34375 0.525 2.61563C0.45 2.77969 0.445312 3.29063 0.445312 11.1797C0.445312 18.825 0.45 19.5844 0.520312 19.7391C0.6375 19.9875 0.867187 20.2266 1.11562 20.3484L1.33594 20.4609L6.54844 20.475L11.7609 20.4891L11.9297 20.8031C12.3234 21.5531 13.1391 22.4438 13.8844 22.9359C14.9859 23.6625 16.0078 23.9719 17.3203 23.9766C18.1687 23.9766 18.5578 23.9203 19.2469 23.6953C22.6734 22.575 24.4219 18.8719 23.1141 15.4922C22.7391 14.5219 21.9141 13.4344 21.1125 12.8625L20.8641 12.6797L20.85 7.75781L20.8359 2.83594L20.7281 2.60156C20.5875 2.29219 20.4187 2.12344 20.1328 1.9875C19.9125 1.87969 19.8516 1.875 18.9516 1.875H18V1.4625C18 0.778126 17.8312 0.407814 17.4141 0.164064C16.9828 -0.0937486 16.4531 -0.0281236 16.0687 0.318751C15.7781 0.581251 15.7312 0.707814 15.7031 1.3125L15.6797 1.85156H10.6406H5.60156L5.57812 1.3125C5.55937 0.867189 5.53594 0.745314 5.45156 0.609376C5.1375 0.103126 4.575 -0.112499 4.05937 0.0703139ZM4.63594 0.820314C4.71094 0.857814 4.78125 0.923439 4.8 0.960939C4.81406 1.00313 4.82812 1.58438 4.82812 2.25469V3.47344L4.71094 3.58594C4.55156 3.75 4.34531 3.74063 4.16719 3.56719L4.03125 3.43125V2.22656V1.02188L4.16719 0.885939C4.32187 0.735939 4.43906 0.717189 4.63594 0.820314ZM17.1141 0.885939L17.25 1.02188V2.22656V3.43125L17.1141 3.56719C16.9359 3.74063 16.7297 3.75 16.5703 3.58594L16.4531 3.47344V2.22656V0.979689L16.5703 0.867189C16.7297 0.703126 16.9359 0.712501 17.1141 0.885939ZM3.28125 3.03281C3.28125 3.53438 3.33281 3.73594 3.52969 3.99375C3.9375 4.5375 4.73437 4.60313 5.22187 4.13438C5.50781 3.85781 5.57812 3.66094 5.57812 3.10313V2.625H10.6406H15.7031V3.10313C15.7031 3.68438 15.7781 3.87656 16.0922 4.15313C16.4531 4.47188 16.8984 4.5375 17.325 4.34063C17.7891 4.125 18 3.7125 18 3.01406V2.625H18.9047H19.8094L19.95 2.77031L20.0859 2.91094L20.1 4.12969L20.1141 5.34375H10.6406H1.16719L1.18125 4.12969L1.19531 2.91094L1.33125 2.77031L1.47187 2.625H2.37656H3.28125V3.03281ZM20.1094 9.16875C20.1094 12.0328 20.1047 12.1969 20.0297 12.1734C19.9828 12.1594 19.7531 12.0703 19.5234 11.9813C18.8062 11.7047 18.2391 11.6063 17.3437 11.6109C16.5141 11.6109 16.1391 11.6672 15.4453 11.8922C12.8719 12.7313 11.1562 15.0891 11.1562 17.7844C11.1562 18.3656 11.2406 19.0172 11.3672 19.4297C11.4047 19.5563 11.4375 19.6781 11.4375 19.7016C11.4375 19.7203 9.19219 19.7297 6.44531 19.725L1.45312 19.7109L1.32656 19.5797L1.19531 19.4531L1.18125 12.7969L1.17187 6.14063H10.6406H20.1094V9.16875ZM17.1281 13.2516C17.2359 13.3406 17.2969 13.3641 17.4094 13.3406C17.6531 13.2938 17.7187 13.1672 17.7187 12.7359V12.3609L18.0609 12.3891C18.7687 12.45 19.7625 12.8344 20.4562 13.3125C20.9719 13.6688 20.9625 13.6453 20.6531 13.9641C20.3484 14.2875 20.3109 14.4563 20.5078 14.6484C20.7047 14.8453 20.8828 14.7984 21.2437 14.4469C21.4312 14.2641 21.4734 14.2453 21.5391 14.2969C21.6469 14.3859 22.0922 15.0703 22.2562 15.3984C22.5141 15.9188 22.7812 16.8891 22.7812 17.3016V17.4375H22.3875C22.0172 17.4375 21.9844 17.4469 21.8953 17.5594C21.7594 17.7281 21.7687 17.9109 21.9187 18.0516C22.0219 18.1453 22.0969 18.1641 22.4156 18.1828L22.7906 18.1969L22.7625 18.4781C22.6547 19.4063 22.2281 20.4234 21.6187 21.1781L21.4594 21.3797L21.1594 21.0891C20.8828 20.8266 20.8406 20.8031 20.7047 20.8313C20.5172 20.8688 20.3906 21.0141 20.3906 21.1969C20.3906 21.3 20.4562 21.4031 20.6484 21.6047C20.7891 21.7547 20.9062 21.8906 20.9062 21.9047C20.9062 21.9469 20.4 22.3219 20.0859 22.5141C19.5516 22.8328 18.6047 23.1469 17.9672 23.2172L17.7187 23.2453V22.875C17.7187 22.4344 17.7 22.3781 17.5266 22.2891C17.3391 22.1906 17.2594 22.2 17.1047 22.3547C16.9781 22.4859 16.9687 22.5141 16.9687 22.8703V23.2453L16.8422 23.2266C16.7672 23.2172 16.5656 23.1844 16.3828 23.1563C15.6609 23.0438 14.7234 22.6359 14.0906 22.1625L13.7812 21.9281L14.0391 21.6469C14.2594 21.4125 14.2969 21.3422 14.2969 21.1875C14.2969 21.0469 14.2687 20.9859 14.175 20.9109C13.9687 20.7516 13.8516 20.7844 13.5234 21.0938L13.2281 21.3797L12.9891 21.0609C12.4406 20.325 12.0375 19.3406 11.9297 18.4547L11.9016 18.1875H12.2016C12.7125 18.1875 12.8906 18.0797 12.8906 17.7703C12.8906 17.5125 12.7594 17.4375 12.3 17.4375H11.8969L11.9297 17.1422C12.0234 16.3125 12.4781 15.1875 12.9891 14.5172L13.2281 14.1984L13.5234 14.4844C13.8516 14.7938 13.9687 14.8266 14.175 14.6672C14.2687 14.5969 14.2969 14.5313 14.2969 14.3953C14.2969 14.25 14.2594 14.1844 14.0391 13.9688C13.8984 13.8281 13.7812 13.7016 13.7812 13.6828C13.7812 13.6313 14.2547 13.2891 14.6484 13.0641C15.2766 12.6984 15.9891 12.4547 16.65 12.3844L16.9453 12.3516L16.9687 12.7406C16.9922 13.1016 17.0016 13.1438 17.1281 13.2516Z" stroke="white" stroke-width="3" mask="url(#path-1-inside-1_661_5587)"/>
<mask id="path-2-inside-2_661_5587" fill="white">
<path d="M2.4375 7.35488L2.29688 7.49082V8.90645V10.3221L2.4375 10.458L2.57344 10.5986L4.00313 10.5846C5.42344 10.5705 5.4375 10.5705 5.54063 10.4627C5.64844 10.3596 5.64844 10.3549 5.64844 8.90645C5.64844 7.45801 5.64844 7.45332 5.54063 7.3502C5.4375 7.24238 5.42344 7.24238 4.00313 7.22832L2.57344 7.21426L2.4375 7.35488ZM4.89844 8.90645V9.82051L3.975 9.83457L3.04688 9.84395V8.90645V7.96895L3.975 7.97832L4.89844 7.99238V8.90645Z"/>
</mask>
<path d="M2.4375 7.35488L3.51598 8.39742L3.49831 8.4157L3.48003 8.43337L2.4375 7.35488ZM2.29688 7.49082H0.796875V6.85456L1.25434 6.41234L2.29688 7.49082ZM2.29688 10.3221L1.25434 11.4006L0.796875 10.9583V10.3221H2.29688ZM2.4375 10.458L3.48003 9.37953L3.49831 9.3972L3.51598 9.41547L2.4375 10.458ZM2.57344 10.5986L2.58819 12.0986L1.94324 12.1049L1.49495 11.6412L2.57344 10.5986ZM4.00313 10.5846L4.01798 12.0845L4.01788 12.0845L4.00313 10.5846ZM5.54063 10.4627L4.45666 9.42586L4.4797 9.40177L4.50379 9.37873L5.54063 10.4627ZM5.54063 7.3502L4.50379 8.43416L4.4797 8.41112L4.45666 8.38703L5.54063 7.3502ZM4.00313 7.22832L4.01788 5.72839L4.01798 5.72839L4.00313 7.22832ZM2.57344 7.21426L1.49495 6.17172L1.94324 5.70799L2.58819 5.71433L2.57344 7.21426ZM4.89844 9.82051H6.39844V11.2978L4.92128 11.3203L4.89844 9.82051ZM3.975 9.83457L3.99784 11.3344L3.99015 11.3345L3.975 9.83457ZM3.04688 9.84395L3.06203 11.3439L1.54688 11.3592L1.54688 9.84395H3.04688ZM3.04688 7.96895H1.54688V6.45372L3.06203 6.46902L3.04688 7.96895ZM3.975 7.97832L3.99015 6.47838L3.99784 6.47849L3.975 7.97832ZM4.89844 7.99238L4.92128 6.49256L6.39844 6.51505V7.99238H4.89844ZM3.48003 8.43337L3.33941 8.5693L1.25434 6.41234L1.39497 6.2764L3.48003 8.43337ZM3.79688 7.49082V8.90645H0.796875V7.49082H3.79688ZM3.79688 8.90645V10.3221H0.796875V8.90645H3.79688ZM3.33941 9.24359L3.48003 9.37953L1.39497 11.5365L1.25434 11.4006L3.33941 9.24359ZM3.51598 9.41547L3.65192 9.5561L1.49495 11.6412L1.35902 11.5005L3.51598 9.41547ZM2.55868 9.09871L3.98837 9.08464L4.01788 12.0845L2.58819 12.0986L2.55868 9.09871ZM3.98827 9.08464C4.34607 9.0811 4.60591 9.07853 4.80095 9.075C5.0033 9.07134 5.10108 9.06711 5.14836 9.0634C5.16974 9.06172 5.15474 9.06201 5.11932 9.06834C5.08328 9.07479 4.99969 9.09199 4.89399 9.13476C4.7757 9.18262 4.66619 9.24756 4.5704 9.32363C4.49291 9.38517 4.43959 9.44371 4.45666 9.42586L6.62459 11.4995C6.57663 11.5497 6.37147 11.7732 6.01924 11.9157C5.75493 12.0227 5.50378 12.0447 5.38328 12.0542C5.12298 12.0746 4.69034 12.0778 4.01798 12.0845L3.98827 9.08464ZM4.50379 9.37873C4.52788 9.35569 4.46824 9.40984 4.40744 9.48543C4.3297 9.58207 4.2619 9.69458 4.21193 9.81842C4.16743 9.9287 4.15005 10.0162 4.1436 10.0539C4.13725 10.091 4.13704 10.1072 4.13853 10.0857C4.1418 10.0383 4.14512 9.93953 4.1468 9.73389C4.14843 9.53577 4.14844 9.27124 4.14844 8.90645H7.14844C7.14844 9.59249 7.14949 10.0304 7.1314 10.2924C7.12314 10.412 7.10343 10.6698 6.99398 10.941C6.84848 11.3016 6.61434 11.5114 6.57746 11.5467L4.50379 9.37873ZM4.14844 8.90645C4.14844 8.54165 4.14843 8.27712 4.1468 8.07901C4.14512 7.87336 4.1418 7.77455 4.13853 7.72719C4.13704 7.70571 4.13725 7.72185 4.1436 7.75895C4.15005 7.79668 4.16743 7.88419 4.21193 7.99447C4.2619 8.11831 4.3297 8.23082 4.40744 8.32746C4.46824 8.40305 4.52788 8.4572 4.50379 8.43416L6.57746 6.26623C6.61434 6.30151 6.84848 6.51131 6.99398 6.87189C7.10343 7.14314 7.12314 7.40092 7.1314 7.52047C7.14949 7.78247 7.14844 8.2204 7.14844 8.90645H4.14844ZM4.45666 8.38703C4.43959 8.36918 4.49291 8.42773 4.5704 8.48926C4.66619 8.56533 4.7757 8.63027 4.89399 8.67813C4.99969 8.7209 5.08328 8.7381 5.11932 8.74455C5.15474 8.75088 5.16974 8.75118 5.14836 8.7495C5.10108 8.74578 5.0033 8.74155 4.80095 8.73789C4.60591 8.73437 4.34607 8.73179 3.98827 8.72825L4.01798 5.72839C4.69034 5.73505 5.12298 5.73826 5.38328 5.75871C5.50378 5.76817 5.75493 5.79021 6.01924 5.89716C6.37147 6.03968 6.57663 6.26322 6.62459 6.31336L4.45666 8.38703ZM3.98837 8.72825L2.55868 8.71419L2.58819 5.71433L4.01788 5.72839L3.98837 8.72825ZM3.65192 8.25679L3.51598 8.39742L1.35902 6.31235L1.49495 6.17172L3.65192 8.25679ZM6.39844 8.90645V9.82051H3.39844V8.90645H6.39844ZM4.92128 11.3203L3.99784 11.3344L3.95216 8.33474L4.8756 8.32068L4.92128 11.3203ZM3.99015 11.3345L3.06203 11.3439L3.03172 8.34402L3.95985 8.33465L3.99015 11.3345ZM1.54688 9.84395V8.90645H4.54688V9.84395H1.54688ZM1.54688 8.90645V7.96895H4.54688V8.90645H1.54688ZM3.06203 6.46902L3.99015 6.4784L3.95985 9.47824L3.03172 9.46887L3.06203 6.46902ZM3.99784 6.47849L4.92128 6.49256L4.8756 9.49221L3.95216 9.47815L3.99784 6.47849ZM6.39844 7.99238V8.90645H3.39844V7.99238H6.39844Z" fill="white" mask="url(#path-2-inside-2_661_5587)"/>
<mask id="path-4-inside-3_661_5587" fill="white">
<path d="M6.96094 7.27005C6.75 7.38724 6.75 7.4013 6.75 8.91537C6.75 10.2888 6.75469 10.3638 6.84375 10.4529C6.89531 10.5044 6.98438 10.556 7.04063 10.5701C7.10156 10.5841 7.76719 10.5935 8.52188 10.5841L9.9 10.5701L9.98906 10.4576C10.0734 10.3544 10.0781 10.256 10.0781 8.90599C10.0781 7.55599 10.0734 7.45755 9.98906 7.35443L9.9 7.24193L8.475 7.23255C7.49531 7.22318 7.02656 7.23724 6.96094 7.27005ZM9.32813 8.90599V9.84349H8.41406H7.5V8.90599V7.96849H8.41406H9.32813V8.90599Z"/>
</mask>
<path d="M6.96094 7.27005L6.23247 5.95882L6.26096 5.94299L6.29012 5.92841L6.96094 7.27005ZM7.04063 10.5701L6.70334 12.0316L6.69005 12.0286L6.67682 12.0253L7.04063 10.5701ZM8.52188 10.5841L8.50324 9.08423L8.50657 9.08419L8.52188 10.5841ZM9.9 10.5701L11.0761 11.5011L10.6315 12.0627L9.91531 12.07L9.9 10.5701ZM9.98906 10.4576L8.81299 9.5265L8.82048 9.51704L8.82813 9.5077L9.98906 10.4576ZM9.98906 7.35443L8.82813 8.30429L8.82048 8.29495L8.81299 8.28548L9.98906 7.35443ZM9.9 7.24193L9.90987 5.74196L10.6294 5.7467L11.0761 6.31088L9.9 7.24193ZM8.475 7.23255L8.46513 8.73253L8.46065 8.73249L8.475 7.23255ZM9.32813 9.84349H10.8281V11.3435H9.32813V9.84349ZM7.5 9.84349V11.3435H6V9.84349H7.5ZM7.5 7.96849H6V6.46849H7.5V7.96849ZM9.32813 7.96849V6.46849H10.8281V7.96849H9.32813ZM7.6894 8.58129C7.65329 8.60136 7.70626 8.57395 7.76864 8.52897C7.84971 8.47051 7.95909 8.37597 8.05886 8.23653C8.15582 8.10103 8.20719 7.97414 8.23399 7.88786C8.2469 7.84631 8.25434 7.81343 8.25843 7.79299C8.26252 7.77252 8.26415 7.75994 8.26439 7.75804C8.26456 7.7567 8.26206 7.77705 8.25938 7.83264C8.25678 7.88649 8.25464 7.95924 8.25312 8.0589C8.25004 8.26076 8.25 8.53187 8.25 8.91537H5.25C5.25 8.2276 5.24647 7.70909 5.28834 7.37973C5.31129 7.19921 5.37024 6.83859 5.61912 6.49078C5.87307 6.13587 6.21369 5.96926 6.23247 5.95882L7.6894 8.58129ZM8.25 8.91537C8.25 9.25989 8.2503 9.51527 8.25206 9.70887C8.25387 9.90789 8.25709 10.0154 8.26069 10.0744C8.26239 10.1022 8.26312 10.1003 8.26034 10.0806C8.25773 10.062 8.24834 10.0002 8.22179 9.91614C8.19231 9.82289 8.14485 9.71198 8.07031 9.59777C7.9987 9.48804 7.92798 9.41577 7.90441 9.39221L5.78309 11.5135C5.64094 11.3714 5.4656 11.1503 5.36127 10.8203C5.28942 10.5929 5.27355 10.3765 5.26626 10.2572C5.25041 9.99742 5.25 9.57473 5.25 8.91537H8.25ZM7.90441 9.39221C7.81716 9.30496 7.74253 9.25716 7.70281 9.23371C7.67741 9.21872 7.64504 9.20129 7.60477 9.18332C7.56919 9.16743 7.49994 9.13872 7.40443 9.11484L6.67682 12.0253C6.45478 11.9698 6.27892 11.8769 6.17805 11.8173C6.06684 11.7517 5.9219 11.6523 5.78309 11.5135L7.90441 9.39221ZM7.37791 9.10847C7.31957 9.095 7.27398 9.08836 7.25613 9.08585C7.23381 9.08273 7.21673 9.08092 7.20794 9.08004C7.19067 9.07832 7.18095 9.07779 7.18378 9.07796C7.18838 9.07825 7.20594 9.07917 7.24074 9.08031C7.30827 9.08252 7.40878 9.08456 7.53747 9.08596C7.7931 9.08875 8.13645 9.08879 8.50324 9.08423L8.54051 12.084C8.15261 12.0888 7.78581 12.0889 7.50472 12.0858C7.36505 12.0843 7.24055 12.0819 7.14256 12.0787C7.0946 12.0771 7.04426 12.0751 6.99785 12.0722C6.97517 12.0708 6.94417 12.0686 6.91008 12.0652C6.89513 12.0637 6.80724 12.0556 6.70334 12.0316L7.37791 9.10847ZM8.50657 9.08419L9.88469 9.07013L9.91531 12.07L8.53718 12.084L8.50657 9.08419ZM8.72393 9.639L8.81299 9.5265L11.1651 11.3886L11.0761 11.5011L8.72393 9.639ZM8.82813 9.5077C8.80211 9.5395 8.74922 9.60765 8.69712 9.70417C8.64454 9.80159 8.61197 9.89196 8.59209 9.96439C8.56059 10.0791 8.56302 10.1458 8.56765 10.0643C8.57133 9.99951 8.5744 9.88796 8.57613 9.69031C8.57782 9.49727 8.57813 9.2445 8.57813 8.90599H11.5781C11.5781 9.55655 11.5776 9.97421 11.5628 10.2344C11.5557 10.3592 11.5412 10.5542 11.4851 10.7585C11.4079 11.0398 11.2794 11.2493 11.15 11.4074L8.82813 9.5077ZM8.57813 8.90599C8.57813 8.56748 8.57782 8.31472 8.57613 8.12167C8.5744 7.92403 8.57133 7.81247 8.56765 7.74772C8.56302 7.6662 8.56059 7.73288 8.59209 7.8476C8.61197 7.92003 8.64454 8.01039 8.69712 8.10781C8.74922 8.20433 8.80211 8.27248 8.82813 8.30429L11.15 6.40457C11.2794 6.56273 11.4079 6.77222 11.4851 7.05345C11.5412 7.25782 11.5557 7.45282 11.5628 7.57754C11.5776 7.83777 11.5781 8.25543 11.5781 8.90599H8.57813ZM8.81299 8.28548L8.72393 8.17298L11.0761 6.31088L11.1651 6.42338L8.81299 8.28548ZM9.89013 8.7419L8.46513 8.73252L8.48487 5.73259L9.90987 5.74196L9.89013 8.7419ZM8.46065 8.73249C7.97612 8.72785 7.63509 8.72923 7.41419 8.73498C7.3013 8.73791 7.23944 8.74153 7.21371 8.74371C7.1994 8.74492 7.21646 8.74403 7.25157 8.73818C7.26937 8.73521 7.30753 8.72839 7.35751 8.71532C7.39668 8.70507 7.5034 8.67587 7.63176 8.6117L6.29012 5.92841C6.51737 5.81479 6.72928 5.78385 6.75774 5.7791C6.83487 5.76623 6.90697 5.75894 6.96114 5.75436C7.07237 5.74496 7.20124 5.7395 7.3362 5.73599C7.611 5.72885 7.99419 5.72788 8.48935 5.73262L8.46065 8.73249ZM10.8281 8.90599V9.84349H7.82813V8.90599H10.8281ZM9.32813 11.3435H8.41406V8.34349H9.32813V11.3435ZM8.41406 11.3435H7.5V8.34349H8.41406V11.3435ZM6 9.84349V8.90599H9V9.84349H6ZM6 8.90599V7.96849H9V8.90599H6ZM7.5 6.46849H8.41406V9.46849H7.5V6.46849ZM8.41406 6.46849H9.32813V9.46849H8.41406V6.46849ZM10.8281 7.96849V8.90599H7.82813V7.96849H10.8281Z" fill="white" mask="url(#path-4-inside-3_661_5587)"/>
<path d="M12.7594 10.5841L12.7594 10.5841L12.7594 10.5841ZM14.13 8.00343C14.1301 8.0034 14.1286 8.00303 14.1255 8.0024C14.1284 8.00315 14.1299 8.00346 14.13 8.00343Z" stroke="white" stroke-width="1.5"/>
<mask id="path-7-inside-4_661_5587" fill="white">
<path d="M15.8672 7.26582C15.6328 7.35488 15.6328 7.37363 15.6328 8.91113C15.6328 10.3549 15.6328 10.3596 15.7406 10.4627C15.8438 10.5705 15.8578 10.5705 17.2781 10.5846L18.7078 10.5986L18.8438 10.458L18.9844 10.3221V8.90645V7.49082L18.8484 7.35488L18.7125 7.21895L17.3344 7.22363C16.5797 7.22363 15.9188 7.24238 15.8672 7.26582ZM18.2344 8.90645V9.84395L17.3109 9.83457L16.3828 9.82051L16.3688 8.95332C16.3641 8.47988 16.3688 8.0627 16.3781 8.02988C16.3969 7.98301 16.6172 7.96895 17.3203 7.96895H18.2344V8.90645Z"/>
</mask>
<path d="M15.8672 7.26582L16.4879 8.63137L16.4445 8.65108L16.4 8.668L15.8672 7.26582ZM15.7406 10.4627L16.7775 9.37873L16.8015 9.40177L16.8246 9.42586L15.7406 10.4627ZM17.2781 10.5846L17.2634 12.0845L17.2633 12.0845L17.2781 10.5846ZM18.7078 10.5986L19.7863 11.6412L19.338 12.1049L18.6931 12.0986L18.7078 10.5986ZM18.8438 10.458L17.7653 9.41547L17.7829 9.3972L17.8012 9.37953L18.8438 10.458ZM18.9844 10.3221H20.4844V10.9583L20.0269 11.4006L18.9844 10.3221ZM18.9844 7.49082L20.045 6.43016L20.4844 6.8695V7.49082H18.9844ZM18.7125 7.21895L18.7074 5.71895L19.3317 5.71683L19.7732 6.15829L18.7125 7.21895ZM17.3344 7.22363L17.3395 8.72363H17.3344V7.22363ZM18.2344 9.84395H19.7344V11.3593L18.2191 11.3439L18.2344 9.84395ZM17.3109 9.83457L17.2957 11.3345L17.2882 11.3344L17.3109 9.83457ZM16.3828 9.82051L16.3601 11.3203L14.9066 11.2983L14.883 9.84483L16.3828 9.82051ZM16.3688 8.95332L14.8689 8.97764L14.8688 8.96817L16.3688 8.95332ZM16.3781 8.02988L14.9358 7.6178L14.9569 7.54403L14.9854 7.4728L16.3781 8.02988ZM18.2344 7.96895V6.46895H19.7344V7.96895H18.2344ZM16.4 8.668C16.361 8.68284 16.4235 8.66132 16.4992 8.62068C16.5962 8.56861 16.7368 8.47593 16.8687 8.3226C16.9983 8.17199 17.0681 8.02272 17.1048 7.91871C17.1381 7.82409 17.1469 7.75866 17.1474 7.75452C17.1485 7.74719 17.146 7.76319 17.1431 7.81775C17.1403 7.87021 17.1379 7.94244 17.1363 8.04298C17.1329 8.2468 17.1328 8.5213 17.1328 8.91113H14.1328C14.1328 8.21972 14.1285 7.67894 14.1768 7.33611C14.2027 7.15201 14.2743 6.73821 14.5946 6.36593C14.9129 5.99602 15.3253 5.8671 15.3344 5.86365L16.4 8.668ZM17.1328 8.91113C17.1328 9.27477 17.1328 9.5384 17.1344 9.73582C17.1361 9.94081 17.1395 10.0391 17.1427 10.086C17.1442 10.1072 17.1439 10.0908 17.1375 10.0535C17.131 10.0155 17.1136 9.9279 17.0689 9.81755C17.0189 9.6937 16.951 9.58138 16.8735 9.48503C16.8128 9.40969 16.7534 9.3557 16.7775 9.37873L14.7038 11.5467C14.6672 11.5117 14.4332 11.3021 14.2877 10.942C14.1779 10.6707 14.1582 10.4129 14.1499 10.2933C14.1318 10.0317 14.1328 9.59472 14.1328 8.91113H17.1328ZM16.8246 9.42586C16.8417 9.44371 16.7883 9.38517 16.7109 9.32363C16.6151 9.24756 16.5055 9.18262 16.3873 9.13476C16.2816 9.09199 16.198 9.07479 16.1619 9.06834C16.1265 9.06201 16.1115 9.06172 16.1329 9.0634C16.1802 9.06711 16.2779 9.07134 16.4803 9.075C16.6753 9.07853 16.9352 9.0811 17.293 9.08464L17.2633 12.0845C16.5909 12.0778 16.1583 12.0746 15.898 12.0542C15.7775 12.0447 15.5263 12.0227 15.262 11.9157C14.9098 11.7732 14.7046 11.5497 14.6567 11.4995L16.8246 9.42586ZM17.2929 9.08464L18.7226 9.09871L18.6931 12.0986L17.2634 12.0845L17.2929 9.08464ZM17.6293 9.5561L17.7653 9.41547L19.9222 11.5005L19.7863 11.6412L17.6293 9.5561ZM17.8012 9.37953L17.9418 9.24359L20.0269 11.4006L19.8863 11.5365L17.8012 9.37953ZM17.4844 10.3221V8.90645H20.4844V10.3221H17.4844ZM17.4844 8.90645V7.49082H20.4844V8.90645H17.4844ZM17.9237 8.55148L17.7878 8.41554L19.9091 6.29422L20.045 6.43016L17.9237 8.55148ZM17.7878 8.41554L17.6518 8.27961L19.7732 6.15829L19.9091 6.29422L17.7878 8.41554ZM18.7176 8.71894L17.3395 8.72362L17.3293 5.72364L18.7074 5.71895L18.7176 8.71894ZM17.3344 8.72363C16.9677 8.72363 16.6285 8.72821 16.38 8.73532C16.2541 8.73893 16.1621 8.7429 16.1055 8.74643C16.0751 8.74832 16.0704 8.74916 16.0819 8.74786C16.0864 8.74735 16.1131 8.74438 16.1515 8.73742C16.1709 8.7339 16.2062 8.72707 16.2505 8.71556C16.2853 8.70652 16.3769 8.68181 16.4879 8.63137L15.2465 5.90027C15.4347 5.81473 15.6032 5.78791 15.6162 5.78555C15.6704 5.77574 15.7173 5.76996 15.7463 5.76669C15.8067 5.75989 15.868 5.75541 15.9187 5.75225C16.024 5.74568 16.1541 5.74056 16.2942 5.73655C16.5778 5.72843 16.9464 5.72363 17.3344 5.72363V8.72363ZM19.7344 8.90645V9.84395H16.7344V8.90645H19.7344ZM18.2191 11.3439L17.2957 11.3345L17.3262 8.33465L18.2496 8.34402L18.2191 11.3439ZM17.2882 11.3344L16.3601 11.3203L16.4055 8.32068L17.3337 8.33474L17.2882 11.3344ZM14.883 9.84483L14.8689 8.97764L17.8686 8.929L17.8826 9.79619L14.883 9.84483ZM14.8688 8.96817C14.8664 8.72332 14.8664 8.49028 14.8682 8.31063C14.8692 8.22193 14.8706 8.13928 14.8729 8.07204C14.8739 8.03974 14.8755 8.00038 14.8781 7.96126C14.8793 7.94253 14.8815 7.91185 14.8855 7.87613C14.886 7.871 14.8969 7.75421 14.9358 7.6178L17.8204 8.44196C17.8439 8.3599 17.8546 8.29456 17.8583 8.27195C17.8632 8.24162 17.866 8.21772 17.8674 8.20479C17.8702 8.17902 17.8714 8.16113 17.8716 8.15787C17.8722 8.14969 17.8719 8.15201 17.8712 8.17084C17.8701 8.20584 17.8689 8.26323 17.8681 8.3421C17.8665 8.49761 17.8664 8.70988 17.8687 8.93847L14.8688 8.96817ZM14.9854 7.4728C15.175 6.99886 15.5329 6.77311 15.6928 6.68838C15.8661 6.59659 16.0212 6.55652 16.0971 6.539C16.2549 6.50258 16.4061 6.49075 16.496 6.48495C16.6966 6.47201 16.9738 6.46895 17.3203 6.46895V9.46895C16.9637 9.46895 16.7792 9.47291 16.6892 9.47872C16.6338 9.4823 16.6824 9.48277 16.7717 9.46217C16.8133 9.45256 16.9426 9.42128 17.0975 9.33923C17.239 9.26424 17.586 9.04919 17.7708 8.58697L14.9854 7.4728ZM17.3203 6.46895H18.2344V9.46895H17.3203V6.46895ZM19.7344 7.96895V8.90645H16.7344V7.96895H19.7344Z" fill="white" mask="url(#path-7-inside-4_661_5587)"/>
<path d="M4.88581 11.674C4.8858 11.674 4.88595 11.6751 4.88632 11.677L4.88581 11.674Z" stroke="white" stroke-width="1.5"/>
<mask id="path-10-inside-5_661_5587" fill="white">
<path d="M6.86719 11.3672L6.75 11.4797V12.9047C6.75 14.2781 6.75469 14.3344 6.84844 14.4562L6.94219 14.5781H8.40938H9.87656L9.975 14.4703C10.0781 14.3625 10.0781 14.3344 10.0781 12.9047V11.4422L9.95625 11.3484C9.83438 11.2547 9.77813 11.25 8.40469 11.25H6.97969L6.86719 11.3672ZM9.32813 12.9141V13.8281H8.41406H7.5V12.9141V12H8.41406H9.32813V12.9141Z"/>
</mask>
<path d="M6.86719 11.3672L7.94927 12.406L7.92807 12.4281L7.90599 12.4493L6.86719 11.3672ZM6.75 11.4797H5.25V10.8404L5.7112 10.3976L6.75 11.4797ZM6.94219 14.5781V16.0781H6.20359L5.75325 15.4927L6.94219 14.5781ZM9.87656 14.5781L10.9843 15.5895L10.5382 16.0781H9.87656V14.5781ZM9.975 14.4703L8.86727 13.4589L8.87901 13.4461L8.89104 13.4335L9.975 14.4703ZM10.0781 11.4422L10.9927 10.2533L11.5781 10.7036V11.4422H10.0781ZM6.97969 11.25L5.89761 10.2112L6.34036 9.75H6.97969V11.25ZM9.32813 13.8281H10.8281V15.3281H9.32813V13.8281ZM7.5 13.8281V15.3281H6V13.8281H7.5ZM7.5 12H6V10.5H7.5V12ZM9.32813 12V10.5H10.8281V12H9.32813ZM7.90599 12.4493L7.7888 12.5618L5.7112 10.3976L5.82839 10.2851L7.90599 12.4493ZM8.25 11.4797V12.9047H5.25V11.4797H8.25ZM8.25 12.9047C8.25 13.2494 8.2503 13.5032 8.25213 13.6951C8.25401 13.8926 8.25735 13.9972 8.26099 14.0538C8.26556 14.1251 8.26677 14.0419 8.22603 13.9107C8.20101 13.8301 8.16542 13.7466 8.11882 13.6653C8.07694 13.5921 8.03818 13.5427 8.03737 13.5417L5.6595 15.3708C5.5856 15.2747 5.4496 15.0858 5.36098 14.8004C5.293 14.5814 5.27546 14.3755 5.26714 14.2458C5.25033 13.9837 5.25 13.5625 5.25 12.9047H8.25ZM8.03737 13.5417L8.13112 13.6636L5.75325 15.4927L5.6595 15.3708L8.03737 13.5417ZM6.94219 13.0781H8.40938V16.0781H6.94219V13.0781ZM8.40938 13.0781H9.87656V16.0781H8.40938V13.0781ZM8.76883 13.5667L8.86727 13.4589L11.0827 15.4817L10.9843 15.5895L8.76883 13.5667ZM8.89104 13.4335C8.89992 13.4242 8.84498 13.4793 8.78659 13.5615C8.71767 13.6584 8.6628 13.7638 8.62388 13.8715C8.58909 13.9678 8.57578 14.0421 8.57113 14.0717C8.56653 14.101 8.56679 14.1107 8.56836 14.0863C8.57179 14.0334 8.57495 13.9303 8.57656 13.7255C8.57811 13.5275 8.57813 13.2647 8.57813 12.9047H11.5781C11.5781 13.5844 11.579 14.0182 11.5621 14.2801C11.5542 14.4027 11.536 14.64 11.4454 14.891C11.3225 15.2309 11.1267 15.4364 11.059 15.5071L8.89104 13.4335ZM8.57813 12.9047V11.4422H11.5781V12.9047H8.57813ZM9.16356 12.6311L9.04168 12.5374L10.8708 10.1595L10.9927 10.2533L9.16356 12.6311ZM9.04168 12.5374C9.04273 12.5382 9.09215 12.5769 9.16526 12.6188C9.24659 12.6654 9.33014 12.701 9.41072 12.726C9.5419 12.7668 9.62508 12.7656 9.55379 12.761C9.49716 12.7574 9.39259 12.754 9.19514 12.7521C9.00318 12.7503 8.74936 12.75 8.40469 12.75V9.75C9.06254 9.75 9.48372 9.75033 9.74582 9.76714C9.8755 9.77546 10.0814 9.793 10.3004 9.86098C10.5858 9.9496 10.7747 10.0856 10.8708 10.1595L9.04168 12.5374ZM8.40469 12.75H6.97969V9.75H8.40469V12.75ZM8.06177 12.2888L7.94927 12.406L5.78511 10.3284L5.89761 10.2112L8.06177 12.2888ZM10.8281 12.9141V13.8281H7.82813V12.9141H10.8281ZM9.32813 15.3281H8.41406V12.3281H9.32813V15.3281ZM8.41406 15.3281H7.5V12.3281H8.41406V15.3281ZM6 13.8281V12.9141H9V13.8281H6ZM6 12.9141V12H9V12.9141H6ZM7.5 10.5H8.41406V13.5H7.5V10.5ZM8.41406 10.5H9.32813V13.5H8.41406V10.5ZM10.8281 12V12.9141H7.82813V12H10.8281Z" fill="white" mask="url(#path-10-inside-5_661_5587)"/>
<mask id="path-12-inside-6_661_5587" fill="white">
<path d="M2.55 15.2812C2.30625 15.3797 2.29688 15.4266 2.29688 16.9453C2.30156 17.9766 2.31562 18.3703 2.35781 18.4266C2.48906 18.5953 2.59219 18.6094 4.00312 18.6094H5.38594L5.51719 18.4969L5.64844 18.3844L5.6625 17.0531C5.67187 16.1578 5.6625 15.6703 5.625 15.5484C5.53594 15.2484 5.45156 15.2344 3.95156 15.2391C3.23437 15.2391 2.60156 15.2578 2.55 15.2812ZM4.89844 16.9219V17.8359L3.975 17.85L3.04687 17.8594V16.9219V15.9844L3.975 15.9937L4.89844 16.0078V16.9219Z"/>
</mask>
<path d="M2.55 15.2812L3.1707 16.6468L3.14147 16.6601L3.11169 16.6721L2.55 15.2812ZM2.29688 16.9453L0.796875 16.9521V16.9453H2.29688ZM2.35781 18.4266L1.17378 19.3475L1.16571 19.3371L1.15781 19.3266L2.35781 18.4266ZM5.38594 18.6094L6.36212 19.7483L5.94082 20.1094H5.38594V18.6094ZM5.64844 18.3844L7.14835 18.4002L7.14117 19.0805L6.62462 19.5233L5.64844 18.3844ZM5.6625 17.0531L7.16242 17.0688L7.16242 17.069L5.6625 17.0531ZM5.625 15.5484L4.19133 15.9896L4.18915 15.9825L4.18703 15.9753L5.625 15.5484ZM3.95156 15.2391L3.95625 16.7391H3.95156V15.2391ZM4.89844 17.8359H6.39844V19.3133L4.92128 19.3358L4.89844 17.8359ZM3.975 17.85L3.99784 19.3498L3.99015 19.3499L3.975 17.85ZM3.04687 17.8594L3.06203 19.3593L1.54687 19.3746L1.54687 17.8594H3.04687ZM3.04687 15.9844H1.54687V14.4691L3.06203 14.4845L3.04687 15.9844ZM3.975 15.9937L3.99015 14.4938L3.99784 14.4939L3.975 15.9937ZM4.89844 16.0078L4.92128 14.508L6.39844 14.5305V16.0078H4.89844ZM3.11169 16.6721C3.04081 16.7007 3.3263 16.6084 3.55748 16.3324C3.67275 16.1948 3.73733 16.0599 3.77253 15.9631C3.80476 15.8744 3.81388 15.8134 3.81468 15.8081C3.81583 15.8007 3.81313 15.8163 3.80987 15.8694C3.80672 15.9206 3.80392 15.9915 3.80181 16.0904C3.79753 16.2909 3.79688 16.5619 3.79688 16.9453H0.796875C0.796875 16.259 0.794348 15.7119 0.84938 15.3532C0.880175 15.1525 0.958936 14.7627 1.25776 14.406C1.55925 14.0461 1.93732 13.911 1.98831 13.8904L3.11169 16.6721ZM3.79686 16.9385C3.79921 17.4556 3.8039 17.7871 3.81208 17.9916C3.81405 18.0407 3.81603 18.0775 3.81782 18.1041C3.8197 18.1319 3.82088 18.1411 3.82043 18.1374C3.82015 18.135 3.81896 18.1254 3.81642 18.1102C3.81403 18.0958 3.80916 18.0689 3.80054 18.0336C3.7925 18.0006 3.77664 17.9414 3.7482 17.8682C3.72278 17.8029 3.66648 17.6715 3.55781 17.5266L1.15781 19.3266C0.959479 19.0621 0.898604 18.7962 0.88601 18.7446C0.861549 18.6443 0.848957 18.5544 0.841871 18.4954C0.827293 18.3741 0.819613 18.2398 0.81448 18.1115C0.803909 17.8472 0.799228 17.4663 0.79689 16.9521L3.79686 16.9385ZM3.54184 17.5057C3.53487 17.4967 3.49109 17.4402 3.41889 17.3744C3.33907 17.3016 3.24557 17.2361 3.14189 17.1843C2.95805 17.0925 2.82161 17.0854 2.86843 17.0907C2.90438 17.0947 2.9953 17.101 3.19749 17.1048C3.39165 17.1085 3.64941 17.1094 4.00312 17.1094V20.1094C3.34092 20.1094 2.85655 20.1083 2.53275 20.0718C2.361 20.0525 2.08599 20.0102 1.80181 19.8684C1.46539 19.7004 1.27009 19.4713 1.17378 19.3475L3.54184 17.5057ZM4.00312 17.1094H5.38594V20.1094H4.00312V17.1094ZM4.40975 17.4705L4.541 17.358L6.49337 19.6358L6.36212 19.7483L4.40975 17.4705ZM4.541 17.358L4.67225 17.2455L6.62462 19.5233L6.49337 19.6358L4.541 17.358ZM4.14852 18.3685L4.16258 17.0373L7.16242 17.069L7.14835 18.4002L4.14852 18.3685ZM4.16258 17.0374C4.16723 16.5935 4.16698 16.2686 4.16174 16.046C4.1591 15.9337 4.15553 15.8639 4.15256 15.826C4.15109 15.8071 4.1507 15.8085 4.15289 15.8238C4.15366 15.8292 4.16263 15.8963 4.19133 15.9896L7.05867 15.1073C7.12209 15.3134 7.13757 15.5171 7.14344 15.5922C7.15248 15.7079 7.1577 15.8388 7.16091 15.9755C7.16739 16.2509 7.16714 16.6174 7.16242 17.0688L4.16258 17.0374ZM4.18703 15.9753C4.16837 15.9125 4.23044 16.1902 4.48158 16.4389C4.74841 16.703 5.0291 16.7516 5.04594 16.7547C5.0612 16.7575 5.00895 16.7479 4.79692 16.7428C4.6008 16.738 4.33513 16.7379 3.95625 16.7391L3.94687 13.7391C4.61281 13.737 5.19457 13.7317 5.58883 13.8043C5.82539 13.8478 6.23763 13.9559 6.5922 14.3069C6.93109 14.6424 7.0371 15.0344 7.06297 15.1215L4.18703 15.9753ZM3.95156 16.7391C3.60417 16.7391 3.28207 16.7436 3.04608 16.7507C2.92631 16.7543 2.83971 16.7582 2.78715 16.7616C2.75887 16.7635 2.75608 16.7642 2.7693 16.7626C2.77481 16.762 2.8022 16.7588 2.84127 16.7515C2.86104 16.7478 2.89621 16.7408 2.94027 16.7291C2.9758 16.7197 3.06391 16.6953 3.1707 16.6468L1.9293 13.9157C2.11222 13.8326 2.27493 13.8054 2.29145 13.8023C2.3458 13.7922 2.39277 13.7862 2.42192 13.7828C2.48243 13.7757 2.54313 13.7711 2.59264 13.7679C2.69564 13.7612 2.82174 13.7561 2.95626 13.752C3.22887 13.7439 3.58177 13.7391 3.95156 13.7391V16.7391ZM6.39844 16.9219V17.8359H3.39844V16.9219H6.39844ZM4.92128 19.3358L3.99784 19.3498L3.95216 16.3502L4.8756 16.3361L4.92128 19.3358ZM3.99015 19.3499L3.06203 19.3593L3.03172 16.3595L3.95985 16.3501L3.99015 19.3499ZM1.54687 17.8594V16.9219H4.54687V17.8594H1.54687ZM1.54687 16.9219V15.9844H4.54687V16.9219H1.54687ZM3.06203 14.4845L3.99015 14.4938L3.95985 17.4937L3.03172 17.4843L3.06203 14.4845ZM3.99784 14.4939L4.92128 14.508L4.8756 17.5076L3.95216 17.4936L3.99784 14.4939ZM6.39844 16.0078V16.9219H3.39844V16.0078H6.39844Z" fill="white" mask="url(#path-12-inside-6_661_5587)"/>
<mask id="path-14-inside-7_661_5587" fill="white">
<path d="M7.03125 15.2672C6.99375 15.2812 6.91406 15.3375 6.85781 15.3891C6.75 15.4828 6.75 15.4922 6.75 16.9312V18.3797L6.86719 18.4922L6.97969 18.6094H8.41406H9.84844L9.96094 18.4922L10.0781 18.3797V16.9453C10.0781 16.0969 10.0594 15.4734 10.0313 15.4219C9.94219 15.2578 9.73125 15.2344 8.39531 15.2391C7.68281 15.2391 7.06875 15.2531 7.03125 15.2672ZM9.32813 16.9219V17.8594H8.41406H7.5V16.9219V15.9844H8.41406H9.32813V16.9219Z"/>
</mask>
<path d="M6.85781 15.3891L7.8714 16.4948L7.85691 16.5081L7.84208 16.521L6.85781 15.3891ZM6.75 18.3797L5.7112 19.4618L5.25 19.019V18.3797H6.75ZM6.86719 18.4922L7.90599 17.4101L7.92807 17.4313L7.94927 17.4534L6.86719 18.4922ZM6.97969 18.6094V20.1094H6.34036L5.89761 19.6482L6.97969 18.6094ZM9.84844 18.6094L10.9305 19.6482L10.4878 20.1094H9.84844V18.6094ZM9.96094 18.4922L8.87886 17.4534L8.90006 17.4313L8.92214 17.4101L9.96094 18.4922ZM10.0781 18.3797H11.5781V19.019L11.1169 19.4618L10.0781 18.3797ZM10.0313 15.4219L8.7144 16.1402L8.71297 16.1375L10.0313 15.4219ZM8.39531 15.2391L8.40058 16.7391H8.39531V15.2391ZM9.32813 17.8594H10.8281V19.3594H9.32813V17.8594ZM7.5 17.8594V19.3594H6V17.8594H7.5ZM7.5 15.9844H6V14.4844H7.5V15.9844ZM9.32813 15.9844V14.4844H10.8281V15.9844H9.32813ZM7.55794 16.6717C7.62068 16.6482 7.66805 16.6252 7.69448 16.6118C7.72321 16.5972 7.74542 16.5845 7.7598 16.576C7.78787 16.5594 7.80643 16.5467 7.8148 16.5408C7.82914 16.5307 7.84639 16.5177 7.8714 16.4948L5.84423 14.2833C5.92548 14.2088 6.0107 14.142 6.08832 14.0874C6.12999 14.058 6.29285 13.9421 6.50456 13.8627L7.55794 16.6717ZM7.84208 16.521C7.81998 16.5402 7.88955 16.4829 7.96117 16.3993C8.05103 16.2945 8.12651 16.1733 8.181 16.042C8.22922 15.9257 8.24766 15.8332 8.25436 15.7945C8.26105 15.7559 8.26134 15.7385 8.25987 15.7596C8.25664 15.8061 8.25332 15.904 8.25163 16.1087C8.25001 16.3058 8.25 16.5688 8.25 16.9312H5.25C5.25 16.2502 5.24893 15.8129 5.26708 15.5517C5.27511 15.4362 5.29464 15.1705 5.40997 14.8925C5.56846 14.5104 5.82578 14.2987 5.87354 14.2572L7.84208 16.521ZM8.25 16.9312V18.3797H5.25V16.9312H8.25ZM7.7888 17.2976L7.90599 17.4101L5.82839 19.5743L5.7112 19.4618L7.7888 17.2976ZM7.94927 17.4534L8.06177 17.5706L5.89761 19.6482L5.78511 19.531L7.94927 17.4534ZM6.97969 17.1094H8.41406V20.1094H6.97969V17.1094ZM8.41406 17.1094H9.84844V20.1094H8.41406V17.1094ZM8.76636 17.5706L8.87886 17.4534L11.043 19.531L10.9305 19.6482L8.76636 17.5706ZM8.92214 17.4101L9.03933 17.2976L11.1169 19.4618L10.9997 19.5743L8.92214 17.4101ZM8.57813 18.3797V16.9453H11.5781V18.3797H8.57813ZM8.57813 16.9453C8.57813 16.5298 8.57351 16.1783 8.56593 15.9306C8.56208 15.8045 8.55786 15.7191 8.55435 15.6706C8.55243 15.644 8.55204 15.6475 8.55493 15.6688C8.55622 15.6783 8.56106 15.7135 8.57181 15.7621C8.57727 15.7868 8.58732 15.829 8.6038 15.8811C8.61769 15.9249 8.65083 16.0236 8.71441 16.1402L11.3481 14.7036C11.4584 14.9059 11.4957 15.09 11.501 15.1142C11.5151 15.178 11.5233 15.2327 11.5277 15.2659C11.537 15.3345 11.5427 15.4017 11.5465 15.4541C11.5544 15.5635 11.5602 15.6967 11.5645 15.8389C11.5734 16.1279 11.5781 16.5123 11.5781 16.9453H8.57813ZM8.71297 16.1375C8.7595 16.2232 8.8339 16.3353 8.94779 16.4453C9.06187 16.5556 9.18076 16.6302 9.28364 16.679C9.37996 16.7246 9.45568 16.7445 9.48853 16.7521C9.52178 16.7598 9.53449 16.7602 9.51438 16.7579C9.46886 16.7528 9.36961 16.7462 9.17258 16.7423C8.98201 16.7386 8.73299 16.7379 8.40058 16.7391L8.39005 13.7391C9.02639 13.7368 9.51163 13.739 9.84734 13.7765C10.0135 13.795 10.2879 13.8351 10.5682 13.9679C10.9282 14.1385 11.186 14.4051 11.3495 14.7062L8.71297 16.1375ZM8.39531 16.7391C8.04774 16.7391 7.72693 16.7425 7.49214 16.7475C7.37352 16.75 7.28406 16.7528 7.22678 16.7554C7.19648 16.7567 7.18656 16.7575 7.19025 16.7572C7.19074 16.7572 7.20974 16.7558 7.23838 16.752C7.2524 16.7502 7.28183 16.7462 7.31966 16.7389C7.34162 16.7347 7.43889 16.7163 7.55794 16.6717L6.50456 13.8627C6.62596 13.8172 6.7267 13.7979 6.75322 13.7928C6.79562 13.7847 6.83071 13.7798 6.85146 13.7771C6.89357 13.7716 6.9303 13.7684 6.95256 13.7667C6.99979 13.7629 7.04956 13.7603 7.09324 13.7583C7.18391 13.7543 7.29952 13.7509 7.42817 13.7482C7.68791 13.7427 8.03038 13.7391 8.39531 13.7391V16.7391ZM10.8281 16.9219V17.8594H7.82813V16.9219H10.8281ZM9.32813 19.3594H8.41406V16.3594H9.32813V19.3594ZM8.41406 19.3594H7.5V16.3594H8.41406V19.3594ZM6 17.8594V16.9219H9V17.8594H6ZM6 16.9219V15.9844H9V16.9219H6ZM7.5 14.4844H8.41406V17.4844H7.5V14.4844ZM8.41406 14.4844H9.32813V17.4844H8.41406V14.4844ZM10.8281 15.9844V16.9219H7.82813V15.9844H10.8281Z" fill="white" mask="url(#path-14-inside-7_661_5587)"/>
<path d="M17.1375 17.5359L17.1332 17.5306C17.1399 17.5251 17.1457 17.5212 17.1503 17.5185L17.1551 17.5158L17.1551 17.5158L17.2017 17.489C17.1817 17.5019 17.1604 17.5176 17.1375 17.5359ZM17.1375 17.5359L17.1332 17.5306C17.1151 17.5456 17.0909 17.5716 17.068 17.6108C17.0865 17.5833 17.1097 17.558 17.1375 17.5359ZM17.0161 17.7439C17.0134 17.7619 17.0122 17.7802 17.0126 17.7984C17.0144 17.8849 17.0508 17.9715 17.1234 18.0375M17.0161 17.7439L17.0181 17.9113C17.0295 17.9385 17.0629 17.9883 17.1225 18.0384L17.1234 18.0375M17.0161 17.7439C17.0117 17.7634 17.0089 17.7816 17.0074 17.7984C17.0024 17.8533 17.0106 17.8933 17.0184 17.9121L16.9646 17.9346L17.0161 17.7439ZM17.1234 18.0375C17.1288 18.0426 17.1342 18.0475 17.1396 18.0522C17.1337 18.0477 17.128 18.0431 17.1225 18.0385L17.1234 18.0375ZM17.3583 17.4097C17.3554 17.4078 17.3526 17.4058 17.3498 17.4038L17.3426 17.408L17.2417 17.466C17.3248 17.4247 17.3932 17.4347 17.4984 17.4891C17.5213 17.5013 17.5414 17.513 17.5589 17.5249C17.5469 17.5139 17.5369 17.5057 17.5294 17.4999C17.5201 17.4962 17.51 17.4921 17.4993 17.4875C17.4993 17.4875 17.4992 17.4875 17.4992 17.4875C17.4588 17.4699 17.4093 17.4448 17.3583 17.4097ZM17.1505 18.1536C17.1505 18.1536 17.1505 18.1536 17.1505 18.1536L17.1505 18.1536ZM17.2391 18.1136C17.252 18.1197 17.2644 18.1247 17.276 18.1288C17.3072 18.1398 17.3238 18.1406 17.3249 18.1406C17.325 18.1406 17.325 18.1406 17.325 18.1406C17.3411 18.1406 17.3573 18.1392 17.3734 18.1366C17.3292 18.1389 17.2835 18.1316 17.2391 18.1136ZM17.7377 17.7984L17.7492 17.777L17.6752 17.6599L17.6752 17.6599L17.6742 17.6582C17.6669 17.6467 17.6565 17.6318 17.6429 17.6146C17.6647 17.6589 17.6719 17.7154 17.6719 17.7984C17.6719 17.9015 17.6343 17.9864 17.576 18.0454C17.6087 18.02 17.633 17.9938 17.6442 17.9721L17.6442 17.9721L17.649 17.9632L17.7146 17.8413L17.7377 17.7984Z" stroke="white" stroke-width="1.5"/>
</g>
<defs>
<clipPath id="clip0_661_5587">
<rect width="24" height="24" fill="white"/>
</clipPath>
</defs>
</svg>
