<svg width="24" height="24" viewBox="0 0 24 24" fill="none" xmlns="http://www.w3.org/2000/svg">
<g clip-path="url(#clip0_643_8401)">
<path d="M2 11.1899C2.25253 10.02 2.87927 9.10164 3.47398 8.17177C4.52481 6.52876 5.79179 5.16836 7.34441 4.21092C8.82514 3.29779 10.4006 2.89843 12.067 3.02188C14.566 3.20693 16.6109 4.52964 18.3587 6.58253C19.2912 7.67764 20.0707 8.91456 20.7076 10.2739C20.8399 10.5562 20.9043 10.8834 21 11.1899C21 11.3955 21 11.601 21 11.8065C20.792 12.8748 20.2193 13.7064 19.7106 14.5762C19.4731 14.9821 19.016 15.0455 18.689 14.7642C18.3611 14.4821 18.2862 13.9667 18.5118 13.5512C18.8129 12.9968 19.1143 12.4426 19.4135 11.8867C19.5408 11.6501 19.5511 11.4045 19.432 11.1582C18.5124 9.25706 17.3649 7.59564 15.8197 6.35938C14.4139 5.23464 12.864 4.67942 11.1648 4.76948C9.48628 4.85844 8.00351 5.57996 6.68242 6.79093C5.38585 7.97945 4.38609 9.46871 3.57392 11.1454C3.46771 11.3647 3.44801 11.5909 3.55447 11.8157C4.56232 13.9426 5.83647 15.7949 7.65806 16.99C10.4693 18.8345 13.2387 18.6458 15.9268 16.5732C16.0897 16.4476 16.2649 16.3122 16.4494 16.2656C16.7885 16.1799 17.1123 16.4236 17.2391 16.7952C17.3693 17.1766 17.2696 17.5926 16.9726 17.8485C16.1263 18.5773 15.2131 19.1603 14.2078 19.5073C11.1223 20.5725 8.30446 19.8986 5.75921 17.6003C4.28545 16.2695 3.15391 14.5835 2.26125 12.6687C2.13823 12.4048 2.08535 12.095 2 11.8065C2 11.6009 2 11.3954 2 11.1899Z" fill="#547DE2"/>
<path d="M11.5068 6.30176C13.9174 6.30409 15.8812 8.64171 15.8781 11.505C15.8751 14.3658 13.9044 16.6975 11.4929 16.6935C9.08228 16.6894 7.11923 14.3519 7.12183 11.4886C7.12443 8.62744 9.09255 6.29943 11.5068 6.30176ZM8.60601 11.4882C8.60345 13.3795 9.89831 14.9269 11.4879 14.9319C13.0817 14.937 14.3882 13.4015 14.3939 11.5165C14.3996 9.61333 13.1027 8.06447 11.5025 8.06333C9.90874 8.06223 8.60858 9.59954 8.60601 11.4882Z" fill="#547DE2"/>
<path d="M11.5019 13.258C10.8764 13.2587 10.3051 12.7784 10.0986 12.0782C9.89321 11.3815 10.0801 10.5966 10.5616 10.1328C10.7013 9.99818 10.8476 9.9012 11.036 9.99069C11.2303 10.083 11.2837 10.271 11.303 10.4972C11.3638 11.2069 11.7459 11.661 12.3412 11.7309C12.5319 11.7532 12.6905 11.8154 12.7687 12.0461C12.8445 12.2694 12.7636 12.4428 12.6501 12.6092C12.374 13.0137 11.9441 13.2575 11.5019 13.258Z" fill="#547DE2"/>
</g>
<defs>
<clipPath id="clip0_643_8401">
<rect width="24" height="24" fill="white"/>
</clipPath>
</defs>
</svg>
