<svg width="24" height="24" viewBox="0 0 24 24" fill="none" xmlns="http://www.w3.org/2000/svg">
<g clip-path="url(#clip0_643_8407)">
<path d="M22.0001 4.26694L19.5334 1.80027C19.3214 1.59812 19.0397 1.48535 18.7467 1.48535C18.4538 1.48535 18.1721 1.59812 17.9601 1.80027L15.7667 4.00027H4.00008C3.64646 4.00027 3.30732 4.14075 3.05727 4.3908C2.80722 4.64084 2.66675 4.97998 2.66675 5.33361V20.0003C2.66675 20.3539 2.80722 20.693 3.05727 20.9431C3.30732 21.1931 3.64646 21.3336 4.00008 21.3336H18.6667C19.0204 21.3336 19.3595 21.1931 19.6096 20.9431C19.8596 20.693 20.0001 20.3539 20.0001 20.0003V7.84027L22.0001 5.84027C22.2085 5.63153 22.3256 5.3486 22.3256 5.05361C22.3256 4.75861 22.2085 4.47568 22.0001 4.26694ZM12.5534 13.4203L9.76008 14.0403L10.4267 11.2736L16.7934 4.89361L18.9467 7.04694L12.5534 13.4203ZM19.6667 6.28694L17.5134 4.13361L18.7467 2.90027L20.9001 5.05361L19.6667 6.28694Z" fill="#F6C46A"/>
</g>
<defs>
<clipPath id="clip0_643_8407">
<rect width="24" height="24" fill="white"/>
</clipPath>
</defs>
</svg>
