<svg width="384" height="384" viewBox="0 0 384 384" fill="none" xmlns="http://www.w3.org/2000/svg">
<path d="M383.62 57.2899C382.59 60.384 381.87 63.6759 380.48 66.5257C376.08 75.5637 369.24 80.2165 360.35 80.8213C359.48 80.8795 358.6 80.8446 357.73 80.8446C247.21 80.8446 136.68 80.8446 26.1602 80.8446C12.9102 80.8446 3.3902 72.33 0.870205 58.3135C-2.0598 41.9707 8.45021 26.0349 22.8102 25.0694C24.4302 24.9647 26.0502 25.0113 27.6702 25.0113C136.57 25.0113 245.48 25.0113 354.38 25.0113C371.75 25.0113 377.47 29.6175 383.62 48.566C383.62 51.474 383.62 54.3819 383.62 57.2899Z" fill="#10C843"/>
<path d="M383.62 196.873C382.59 199.967 381.87 203.259 380.48 206.109C376.08 215.147 369.24 219.8 360.35 220.404C359.48 220.463 358.6 220.428 357.73 220.428C247.21 220.428 136.68 220.428 26.1602 220.428C12.9102 220.428 3.3802 211.913 0.870205 197.908C-2.0598 181.565 8.45021 165.63 22.8102 164.664C24.4302 164.559 26.0502 164.606 27.6702 164.606C136.57 164.606 245.47 164.606 354.38 164.606C371.73 164.606 377.48 169.236 383.62 188.161C383.62 191.057 383.62 193.965 383.62 196.873Z" fill="#10C843"/>
<path d="M383.62 336.456C382.59 339.55 381.87 342.842 380.48 345.692C376.08 354.73 369.24 359.383 360.35 359.987C359.48 360.046 358.6 360.011 357.73 360.011C247.21 360.011 136.68 360.011 26.1602 360.011C12.9102 360.011 3.3802 351.496 0.870205 337.491C-2.0598 321.148 8.45021 305.213 22.8102 304.247C24.4302 304.142 26.0502 304.189 27.6702 304.189C136.57 304.189 245.47 304.189 354.38 304.189C371.73 304.189 377.48 308.819 383.62 327.744C383.62 330.64 383.62 333.548 383.62 336.456Z" fill="#10C843"/>
</svg>
