<svg width="24" height="24" viewBox="0 0 24 24" fill="none" xmlns="http://www.w3.org/2000/svg">
<g clip-path="url(#clip0_661_5630)">
<mask id="path-1-inside-1_661_5630" fill="white">
<path d="M6.30469 0.0419471C6.25313 0.0653846 6.16875 0.13101 6.11719 0.18726C6.03281 0.28101 6.02344 0.370072 6.00938 0.979447L5.99531 1.6732L3.40781 2.36226C1.98281 2.74195 0.764063 3.07476 0.69375 3.10288C0.525 3.16851 0.421875 3.33257 0.421875 3.53882C0.421875 3.63257 0.792188 5.09507 1.24688 6.78257C1.69688 8.47476 2.05313 9.87163 2.02969 9.89038C2.01094 9.90913 1.58906 10.1904 1.10156 10.5091C0.609375 10.8326 0.159375 11.1513 0.103125 11.2263L0 11.3576V16.7998C0 21.2623 0.0140625 22.2841 0.065625 22.481C0.253125 23.1841 0.815625 23.7466 1.52344 23.9341C1.8375 24.0185 22.0172 24.0326 22.4156 23.9482C23.1516 23.7935 23.7891 23.1513 23.9484 22.4154C23.9859 22.2419 24 20.5779 24 16.7388V11.3107L23.8734 11.1841C23.7563 11.0669 23.025 10.5701 22.2516 10.0826C22.0266 9.93726 21.9422 9.85757 21.9563 9.80132C22.0172 9.59038 23.3109 4.72945 23.4375 4.25132C23.6719 3.32788 23.6344 3.20601 23.0625 3.02788C22.8609 2.96695 21.6422 2.63413 20.3484 2.29195L18.0047 1.6732L17.9906 0.979447C17.9766 0.290385 17.9766 0.28101 17.8453 0.154447L17.7188 0.0231971L12.0563 0.0138221C8.94375 0.00913458 6.35625 0.0231971 6.30469 0.0419471ZM17.0063 8.06695L17.0156 15.131L14.5313 16.7529C13.1672 17.6435 12.0281 18.3748 12.0047 18.3748C11.9766 18.3748 10.8375 17.6435 9.46875 16.7529L6.98438 15.131V8.0857C6.98438 4.21382 6.99844 1.03101 7.01719 1.01695C7.03125 0.998197 9.28594 0.988822 12.0188 0.99351L16.9922 1.00757L17.0063 8.06695ZM6 3.23413V3.74507L5.80313 3.79663C4.9875 4.01226 4.21875 4.22788 4.11094 4.27476C3.90469 4.35445 3.82969 4.50913 3.825 4.87476C3.82031 5.14663 3.80156 5.21226 3.70781 5.31538C3.64219 5.38101 3.5625 5.43726 3.525 5.43726C3.4875 5.43726 3.38906 5.50757 3.3 5.59663C3.18281 5.71382 3.14063 5.7982 3.14063 5.9107C3.14063 5.99976 3.31875 6.74507 3.53438 7.57007C3.9 8.95757 3.94219 9.07945 4.07344 9.19663C4.28438 9.38413 4.50938 9.37476 4.71563 9.16851C4.82813 9.05601 4.875 8.96695 4.875 8.85913C4.875 8.77945 4.725 8.15132 4.54219 7.47163L4.20938 6.23413L4.39688 6.02788C4.61719 5.78882 4.72969 5.58726 4.80469 5.29663L4.85625 5.0857L5.41406 4.9357C5.71875 4.85132 5.97656 4.79038 5.98594 4.79507C5.99531 4.80445 5.99531 6.98882 5.99063 9.64663L5.97656 14.4794L4.9875 13.8326L4.00313 13.1857L3.67969 11.9951C3.50625 11.3388 2.94375 9.25288 2.43281 7.35913C1.92188 5.47007 1.50938 3.91382 1.51406 3.90913C1.53281 3.89507 5.8875 2.72788 5.94375 2.7232C5.98594 2.71851 6 2.84976 6 3.23413ZM20.2688 3.30913C21.4828 3.63726 22.4813 3.90445 22.4859 3.90913C22.4906 3.91382 21.9469 5.95288 21.2766 8.43726C20.6063 10.9263 20.0484 13.0123 20.0297 13.0732C20.0109 13.1529 19.7391 13.3591 19.0125 13.8326L18.0234 14.4841L18.0094 9.64663C18.0047 6.98882 18.0047 4.80445 18.0141 4.79507C18.0234 4.79038 18.2813 4.85132 18.5859 4.9357L19.1438 5.0857L19.1953 5.29663C19.2703 5.58726 19.3828 5.78882 19.6031 6.02788L19.7906 6.23413L19.4578 7.47632C19.275 8.15601 19.125 8.77007 19.125 8.83101C19.125 9.26226 19.6078 9.48257 19.9266 9.19663C20.0578 9.07945 20.1 8.96226 20.3484 8.03882C20.9297 5.8732 20.9203 5.93413 20.8406 5.74663C20.7938 5.62945 20.7141 5.55445 20.5922 5.4982C20.4938 5.45601 20.3578 5.36695 20.2875 5.30132C20.1703 5.1982 20.1563 5.15132 20.1563 4.88882C20.1563 4.49976 20.0719 4.34038 19.8188 4.24663C19.6453 4.1857 18.0797 3.74976 18.0188 3.74976C18.0094 3.74976 18 3.51538 18 3.23413C18 2.9482 18.0141 2.71851 18.0281 2.71851C18.0469 2.71851 19.05 2.9857 20.2688 3.30913ZM2.54063 11.606C2.63906 11.9623 2.71406 12.2763 2.70469 12.2951C2.69063 12.3373 1.45313 11.5404 1.45781 11.4888C1.4625 11.4419 2.26875 10.9263 2.32031 10.9404C2.34844 10.9498 2.44688 11.2451 2.54063 11.606ZM22.1391 11.2029C22.3594 11.3435 22.5375 11.4794 22.5328 11.5029C22.5188 11.5544 21.3188 12.3373 21.2953 12.3091C21.2766 12.2904 21.6 11.0248 21.6422 10.9544C21.6703 10.9029 21.6656 10.9029 22.1391 11.2029ZM3.97031 14.3482C5.56406 15.3841 6.89531 16.256 6.92813 16.2841C6.97969 16.331 6.42188 16.9076 4.02188 19.2888L1.05469 22.2326L1.02656 21.8154C0.975 21.1451 0.979688 12.4685 1.02656 12.4685C1.05 12.4685 2.37656 13.3123 3.97031 14.3482ZM23.0156 17.3435C23.0156 20.0248 23.0016 22.2185 22.9781 22.2185C22.9594 22.2185 21.6141 20.8873 19.9922 19.2654C17.6906 16.9591 17.0531 16.2982 17.1094 16.2654C17.1469 16.2419 18.4781 15.3794 20.0625 14.3482C21.6469 13.3169 22.9594 12.4732 22.9828 12.4685C23.0016 12.4685 23.0156 14.6623 23.0156 17.3435ZM9.66563 18.0888C11.5031 19.2982 11.8453 19.4998 12.0422 19.4998C12.1219 19.4998 12.8297 19.0591 14.1563 18.1919L16.1484 16.8841L19.1859 19.9123L22.2188 22.9451L20.9203 22.9732C19.0641 23.0154 9.92344 23.0201 5.5125 22.9826L1.77188 22.9544L4.80938 19.9169C6.66094 18.0654 7.86563 16.8935 7.89844 16.9169C7.92188 16.9357 8.71875 17.4654 9.66563 18.0888Z"/>
</mask>
<path d="M6.30469 0.0419471C6.25313 0.0653846 6.16875 0.13101 6.11719 0.18726C6.03281 0.28101 6.02344 0.370072 6.00938 0.979447L5.99531 1.6732L3.40781 2.36226C1.98281 2.74195 0.764063 3.07476 0.69375 3.10288C0.525 3.16851 0.421875 3.33257 0.421875 3.53882C0.421875 3.63257 0.792188 5.09507 1.24688 6.78257C1.69688 8.47476 2.05313 9.87163 2.02969 9.89038C2.01094 9.90913 1.58906 10.1904 1.10156 10.5091C0.609375 10.8326 0.159375 11.1513 0.103125 11.2263L0 11.3576V16.7998C0 21.2623 0.0140625 22.2841 0.065625 22.481C0.253125 23.1841 0.815625 23.7466 1.52344 23.9341C1.8375 24.0185 22.0172 24.0326 22.4156 23.9482C23.1516 23.7935 23.7891 23.1513 23.9484 22.4154C23.9859 22.2419 24 20.5779 24 16.7388V11.3107L23.8734 11.1841C23.7563 11.0669 23.025 10.5701 22.2516 10.0826C22.0266 9.93726 21.9422 9.85757 21.9563 9.80132C22.0172 9.59038 23.3109 4.72945 23.4375 4.25132C23.6719 3.32788 23.6344 3.20601 23.0625 3.02788C22.8609 2.96695 21.6422 2.63413 20.3484 2.29195L18.0047 1.6732L17.9906 0.979447C17.9766 0.290385 17.9766 0.28101 17.8453 0.154447L17.7188 0.0231971L12.0563 0.0138221C8.94375 0.00913458 6.35625 0.0231971 6.30469 0.0419471ZM17.0063 8.06695L17.0156 15.131L14.5313 16.7529C13.1672 17.6435 12.0281 18.3748 12.0047 18.3748C11.9766 18.3748 10.8375 17.6435 9.46875 16.7529L6.98438 15.131V8.0857C6.98438 4.21382 6.99844 1.03101 7.01719 1.01695C7.03125 0.998197 9.28594 0.988822 12.0188 0.99351L16.9922 1.00757L17.0063 8.06695ZM6 3.23413V3.74507L5.80313 3.79663C4.9875 4.01226 4.21875 4.22788 4.11094 4.27476C3.90469 4.35445 3.82969 4.50913 3.825 4.87476C3.82031 5.14663 3.80156 5.21226 3.70781 5.31538C3.64219 5.38101 3.5625 5.43726 3.525 5.43726C3.4875 5.43726 3.38906 5.50757 3.3 5.59663C3.18281 5.71382 3.14063 5.7982 3.14063 5.9107C3.14063 5.99976 3.31875 6.74507 3.53438 7.57007C3.9 8.95757 3.94219 9.07945 4.07344 9.19663C4.28438 9.38413 4.50938 9.37476 4.71563 9.16851C4.82813 9.05601 4.875 8.96695 4.875 8.85913C4.875 8.77945 4.725 8.15132 4.54219 7.47163L4.20938 6.23413L4.39688 6.02788C4.61719 5.78882 4.72969 5.58726 4.80469 5.29663L4.85625 5.0857L5.41406 4.9357C5.71875 4.85132 5.97656 4.79038 5.98594 4.79507C5.99531 4.80445 5.99531 6.98882 5.99063 9.64663L5.97656 14.4794L4.9875 13.8326L4.00313 13.1857L3.67969 11.9951C3.50625 11.3388 2.94375 9.25288 2.43281 7.35913C1.92188 5.47007 1.50938 3.91382 1.51406 3.90913C1.53281 3.89507 5.8875 2.72788 5.94375 2.7232C5.98594 2.71851 6 2.84976 6 3.23413ZM20.2688 3.30913C21.4828 3.63726 22.4813 3.90445 22.4859 3.90913C22.4906 3.91382 21.9469 5.95288 21.2766 8.43726C20.6063 10.9263 20.0484 13.0123 20.0297 13.0732C20.0109 13.1529 19.7391 13.3591 19.0125 13.8326L18.0234 14.4841L18.0094 9.64663C18.0047 6.98882 18.0047 4.80445 18.0141 4.79507C18.0234 4.79038 18.2813 4.85132 18.5859 4.9357L19.1438 5.0857L19.1953 5.29663C19.2703 5.58726 19.3828 5.78882 19.6031 6.02788L19.7906 6.23413L19.4578 7.47632C19.275 8.15601 19.125 8.77007 19.125 8.83101C19.125 9.26226 19.6078 9.48257 19.9266 9.19663C20.0578 9.07945 20.1 8.96226 20.3484 8.03882C20.9297 5.8732 20.9203 5.93413 20.8406 5.74663C20.7938 5.62945 20.7141 5.55445 20.5922 5.4982C20.4938 5.45601 20.3578 5.36695 20.2875 5.30132C20.1703 5.1982 20.1563 5.15132 20.1563 4.88882C20.1563 4.49976 20.0719 4.34038 19.8188 4.24663C19.6453 4.1857 18.0797 3.74976 18.0188 3.74976C18.0094 3.74976 18 3.51538 18 3.23413C18 2.9482 18.0141 2.71851 18.0281 2.71851C18.0469 2.71851 19.05 2.9857 20.2688 3.30913ZM2.54063 11.606C2.63906 11.9623 2.71406 12.2763 2.70469 12.2951C2.69063 12.3373 1.45313 11.5404 1.45781 11.4888C1.4625 11.4419 2.26875 10.9263 2.32031 10.9404C2.34844 10.9498 2.44688 11.2451 2.54063 11.606ZM22.1391 11.2029C22.3594 11.3435 22.5375 11.4794 22.5328 11.5029C22.5188 11.5544 21.3188 12.3373 21.2953 12.3091C21.2766 12.2904 21.6 11.0248 21.6422 10.9544C21.6703 10.9029 21.6656 10.9029 22.1391 11.2029ZM3.97031 14.3482C5.56406 15.3841 6.89531 16.256 6.92813 16.2841C6.97969 16.331 6.42188 16.9076 4.02188 19.2888L1.05469 22.2326L1.02656 21.8154C0.975 21.1451 0.979688 12.4685 1.02656 12.4685C1.05 12.4685 2.37656 13.3123 3.97031 14.3482ZM23.0156 17.3435C23.0156 20.0248 23.0016 22.2185 22.9781 22.2185C22.9594 22.2185 21.6141 20.8873 19.9922 19.2654C17.6906 16.9591 17.0531 16.2982 17.1094 16.2654C17.1469 16.2419 18.4781 15.3794 20.0625 14.3482C21.6469 13.3169 22.9594 12.4732 22.9828 12.4685C23.0016 12.4685 23.0156 14.6623 23.0156 17.3435ZM9.66563 18.0888C11.5031 19.2982 11.8453 19.4998 12.0422 19.4998C12.1219 19.4998 12.8297 19.0591 14.1563 18.1919L16.1484 16.8841L19.1859 19.9123L22.2188 22.9451L20.9203 22.9732C19.0641 23.0154 9.92344 23.0201 5.5125 22.9826L1.77188 22.9544L4.80938 19.9169C6.66094 18.0654 7.86563 16.8935 7.89844 16.9169C7.92188 16.9357 8.71875 17.4654 9.66563 18.0888Z" stroke="white" stroke-width="3" mask="url(#path-1-inside-1_661_5630)"/>
<path d="M8.97656 2.58232C9.01406 2.34795 9.13125 2.12764 9.24844 2.07138L14.7949 2.71723L14.7446 2.59351L14.7439 2.59188L14.6284 2.30758L14.6245 2.29783L14.6048 2.24951H14.1H12H9.90469H9.41975L9.37873 2.34066L9.37823 2.34178L9.25118 2.62411L8.97656 2.58232ZM8.97656 2.58232L9.25028 2.62612L8.55 2.98545C8.78438 2.94795 8.94375 2.79795 8.97656 2.58232Z" stroke="white" stroke-width="1.5"/>
<path d="M12.2405 4.94811C12.2403 4.94728 12.2401 4.94645 12.2399 4.94562C12.2186 4.8627 12.1757 4.81007 12.1355 4.7779C12.1347 4.77725 12.1339 4.7766 12.133 4.77596C12.1027 4.75222 12.0742 4.74012 12.0582 4.73537C12.0216 4.72452 11.9394 4.7164 11.8536 4.77871L11.926 4.8972L11.9331 4.90886L11.9933 5.00728L11.9951 5.01027L12.0031 5.02343L12.0073 5.03027L12.1283 5.22827C12.1288 5.22802 12.1293 5.2278 12.1297 5.22762C12.1472 5.21684 12.1619 5.2059 12.1743 5.19525C12.1745 5.19509 12.1747 5.19492 12.1749 5.19476C12.2167 5.15858 12.2316 5.1259 12.2363 5.1148C12.2413 5.10273 12.2467 5.08561 12.2493 5.06174C12.2519 5.03917 12.253 5.00059 12.2411 4.95052C12.2409 4.94972 12.2407 4.94892 12.2405 4.94811ZM12.0066 5.25375C12.0686 5.25193 12.1108 5.23598 12.1254 5.2296L12.0061 5.0326L12.0019 5.02568L11.9929 5.01079L11.9911 5.00781L11.9265 4.90095L11.9195 4.88938L11.8528 4.77927C11.8477 4.78301 11.8425 4.78701 11.8374 4.79127C11.8373 4.79134 11.8372 4.79139 11.8372 4.79146L11.8374 4.79127C11.8371 4.79153 11.8368 4.79178 11.8365 4.79204C11.8361 4.79233 11.8358 4.79261 11.8355 4.7929C11.7557 4.86081 11.7331 4.95294 11.7399 5.0205C11.7413 5.03525 11.7445 5.05138 11.7497 5.06817C11.7498 5.0687 11.75 5.06922 11.7502 5.06975C11.7684 5.1277 11.8102 5.19318 11.8868 5.23642C11.8878 5.23681 11.8891 5.23728 11.8906 5.23781C11.8931 5.23872 11.8964 5.2398 11.9003 5.24098C11.9202 5.24695 11.9572 5.25521 12.0066 5.25375Z" stroke="white" stroke-width="1.5"/>
<mask id="path-4-inside-2_661_5630" fill="white">
<path d="M11.4892 7.03086C9.79698 7.26523 8.41885 8.5543 8.08604 10.2137C7.9876 10.6871 8.01104 11.5871 8.12823 12.023C8.24073 12.4496 8.63448 13.2043 8.92041 13.5512C9.4126 14.1418 10.1204 14.6059 10.8985 14.8402C11.2735 14.9527 11.3954 14.9668 12.0001 14.9668C12.6048 14.9668 12.7267 14.9527 13.1017 14.8402C14.4517 14.4324 15.4642 13.4059 15.8532 12.0605C15.9985 11.5637 16.0079 10.4527 15.872 9.98398C15.3751 8.27773 13.9407 7.11523 12.2064 7.0168C11.9767 7.00273 11.6532 7.00742 11.4892 7.03086ZM12.7032 8.09023C13.5235 8.28242 14.297 8.89648 14.6673 9.65586C14.7751 9.87617 14.8923 10.1996 14.9298 10.3824C15.2579 11.9434 14.297 13.4855 12.7454 13.9027C12.347 14.0059 11.6485 14.0059 11.2501 13.9027C10.2704 13.6402 9.45948 12.8762 9.15948 11.934C8.91104 11.1512 8.96729 10.4012 9.33291 9.65586C9.69854 8.90586 10.472 8.28242 11.2735 8.09023C11.6485 8.00117 12.3235 8.00117 12.7032 8.09023Z"/>
</mask>
<path d="M11.4892 7.03086L11.7013 8.5158L11.695 8.51668L11.4892 7.03086ZM8.08604 10.2137L9.55679 10.5087L9.55463 10.519L8.08604 10.2137ZM8.12823 12.023L9.57682 11.6336L9.57863 11.6405L8.12823 12.023ZM8.92041 13.5512L7.76807 14.5115L7.76297 14.5053L8.92041 13.5512ZM10.8985 14.8402L10.4675 16.277L10.4659 16.2765L10.8985 14.8402ZM13.1017 14.8402L13.5354 16.2762L13.5327 16.277L13.1017 14.8402ZM15.8532 12.0605L14.4123 11.6438L14.4135 11.6395L15.8532 12.0605ZM15.872 9.98398L17.3122 9.56459L17.3126 9.5662L15.872 9.98398ZM12.2064 7.0168L12.1214 8.5144L12.1147 8.51399L12.2064 7.0168ZM12.7032 8.09023L12.3611 9.55069L12.3607 9.5506L12.7032 8.09023ZM14.6673 9.65586L13.32 10.3152L13.3191 10.3133L14.6673 9.65586ZM14.9298 10.3824L13.4619 10.691L13.4604 10.6838L14.9298 10.3824ZM12.7454 13.9027L13.1349 15.3513L13.1213 15.3549L12.7454 13.9027ZM11.2501 13.9027L10.8742 15.3549L10.8619 15.3516L11.2501 13.9027ZM9.15948 11.934L7.73018 12.3891L7.72975 12.3877L9.15948 11.934ZM9.33291 9.65586L10.6812 10.3132L10.6796 10.3165L9.33291 9.65586ZM11.2735 8.09023L10.9238 6.63157L10.9269 6.63083L11.2735 8.09023ZM11.695 8.51668C10.6268 8.66462 9.76252 9.48268 9.55675 10.5086L6.61533 9.9187C7.07518 7.62592 8.96715 5.86585 11.2834 5.54504L11.695 8.51668ZM9.55463 10.519C9.53893 10.5945 9.51886 10.8083 9.52583 11.0961C9.52902 11.2276 9.53736 11.3518 9.54904 11.4561C9.55483 11.5078 9.56096 11.5503 9.56667 11.5832C9.56948 11.5995 9.57196 11.612 9.57391 11.6211C9.57588 11.6302 9.57696 11.6342 9.5768 11.6336L6.67965 12.4124C6.57562 12.0254 6.53604 11.5539 6.52671 11.1687C6.51728 10.7792 6.53471 10.3062 6.61745 9.90832L9.55463 10.519ZM9.57863 11.6405C9.59362 11.6973 9.66251 11.8793 9.79038 12.1255C9.91673 12.3687 10.0306 12.5397 10.0779 12.5971L7.76297 14.5053C7.52428 14.2157 7.29832 13.836 7.12819 13.5085C6.95957 13.1839 6.77534 12.7753 6.67782 12.4056L9.57863 11.6405ZM10.0727 12.5909C10.3688 12.9462 10.8222 13.2507 11.3311 13.404L10.4659 16.2765C9.41865 15.961 8.45637 15.3374 7.76808 14.5114L10.0727 12.5909ZM11.3296 13.4035C11.4891 13.4514 11.5135 13.4531 11.5345 13.4555C11.5893 13.4618 11.6877 13.4668 12.0001 13.4668V16.4668C11.7078 16.4668 11.4429 16.4647 11.1919 16.4359C10.907 16.4031 10.683 16.3416 10.4675 16.277L11.3296 13.4035ZM12.0001 13.4668C12.3125 13.4668 12.4109 13.4618 12.4657 13.4555C12.4867 13.4531 12.5111 13.4514 12.6706 13.4035L13.5327 16.277C13.3172 16.3416 13.0932 16.4031 12.8083 16.4359C12.5573 16.4647 12.2924 16.4668 12.0001 16.4668V13.4668ZM12.6679 13.4043C13.5319 13.1433 14.1647 12.4999 14.4123 11.6438L17.2942 12.4773C16.7636 14.3118 15.3714 15.7215 13.5354 16.2761L12.6679 13.4043ZM14.4135 11.6395C14.4122 11.6439 14.4169 11.6283 14.4241 11.5875C14.431 11.5486 14.4382 11.4975 14.4449 11.4345C14.4583 11.3076 14.4667 11.1563 14.4681 10.9985C14.4695 10.8405 14.4637 10.6919 14.4528 10.5705C14.4407 10.4354 14.4268 10.3862 14.4313 10.4018L17.3126 9.5662C17.4435 10.0174 17.4718 10.5914 17.468 11.025C17.4641 11.4658 17.4242 12.0326 17.2929 12.4816L14.4135 11.6395ZM14.4318 10.4034C14.1067 9.287 13.2003 8.57563 12.1214 8.51439L12.2914 5.51921C14.6811 5.65484 16.6435 7.26847 17.3122 9.56459L14.4318 10.4034ZM12.1147 8.51399C12.0462 8.5098 11.9482 8.50776 11.8502 8.50952C11.8027 8.51038 11.7619 8.51202 11.7305 8.51395C11.6954 8.51612 11.6879 8.5177 11.7013 8.51578L11.277 5.54594C11.5813 5.50247 12.0167 5.50238 12.298 5.5196L12.1147 8.51399ZM13.0454 6.62978C14.3022 6.92423 15.4465 7.83143 16.0155 8.99839L13.3191 10.3133C13.1475 9.96154 12.7449 9.64061 12.3611 9.55069L13.0454 6.62978ZM16.0146 8.99653C16.1607 9.29507 16.3294 9.74074 16.3992 10.081L13.4604 10.6838C13.4631 10.6972 13.4621 10.6893 13.4521 10.656C13.443 10.6261 13.4303 10.5875 13.4143 10.5433C13.3807 10.4504 13.3449 10.3662 13.32 10.3152L16.0146 8.99653ZM16.3977 10.0739C16.8927 12.4286 15.4407 14.7313 13.1349 15.3513L12.3559 12.4542C13.1533 12.2398 13.6231 11.4582 13.4619 10.691L16.3977 10.0739ZM13.1213 15.3549C12.7536 15.45 12.3409 15.4801 11.9978 15.4801C11.6546 15.4801 11.2419 15.45 10.8743 15.3549L11.626 12.4506C11.6256 12.4505 11.6361 12.4532 11.659 12.457C11.6813 12.4607 11.7105 12.4647 11.7464 12.4683C11.8193 12.4757 11.9058 12.4801 11.9978 12.4801C12.0897 12.4801 12.1763 12.4757 12.2491 12.4683C12.285 12.4647 12.3142 12.4607 12.3365 12.457C12.3594 12.4532 12.3699 12.4505 12.3696 12.4506L13.1213 15.3549ZM10.8619 15.3516C9.40339 14.9608 8.18985 13.8327 7.73018 12.3891L10.5888 11.4789C10.7291 11.9196 11.1374 12.3196 11.6383 12.4538L10.8619 15.3516ZM7.72975 12.3877C7.36357 11.2339 7.45169 10.0849 7.98623 8.99522L10.6796 10.3165C10.4829 10.7175 10.4585 11.0684 10.5892 11.4802L7.72975 12.3877ZM7.9846 8.99856C8.54424 7.85058 9.68108 6.92954 10.9238 6.63158L11.6233 9.54889C11.2629 9.6353 10.8528 9.96114 10.6812 10.3132L7.9846 8.99856ZM10.9269 6.63083C11.2726 6.54874 11.6639 6.52344 11.9866 6.52344C12.3103 6.52344 12.7006 6.5489 13.0458 6.62987L12.3607 9.5506C12.3608 9.55062 12.3578 9.54992 12.3514 9.54872C12.3451 9.54754 12.3364 9.54603 12.3251 9.54433C12.3023 9.5409 12.2727 9.53726 12.2367 9.53398C12.1637 9.52736 12.0776 9.52344 11.9866 9.52344C11.8956 9.52344 11.81 9.52736 11.7381 9.53393C11.7026 9.53717 11.6738 9.54075 11.6519 9.54407C11.6293 9.54749 11.6193 9.54985 11.6201 9.54964L10.9269 6.63083Z" fill="white" mask="url(#path-4-inside-2_661_5630)"/>
</g>
<defs>
<clipPath id="clip0_661_5630">
<rect width="24" height="24" fill="white"/>
</clipPath>
</defs>
</svg>
