<svg width="24" height="24" viewBox="0 0 24 24" fill="none" xmlns="http://www.w3.org/2000/svg">
<mask id="path-1-inside-1_661_5608" fill="white">
<path d="M2.41426 4.8375C2.4002 4.87031 2.39551 8.11406 2.4002 12.0469L2.41426 19.1953H12.0002H21.5861L21.6002 12.8062L21.6096 6.42187H15.5018H9.39863L8.57832 5.60156L7.75801 4.78125H5.09551C3.00957 4.78125 2.42832 4.79531 2.41426 4.8375ZM8.25019 6.39844L9.07519 7.21875H14.9439H20.8127V8.01562V8.8125H12.0002H3.1877V7.22812C3.1877 6.35625 3.20176 5.625 3.22051 5.61094C3.23457 5.59219 4.19082 5.57812 5.33926 5.57812H7.4252L8.25019 6.39844ZM20.8033 14.0016L20.7893 18.3984H12.0002H3.21113L3.19707 14.0016L3.1877 9.60937H12.0002H20.8127L20.8033 14.0016Z"/>
</mask>
<path d="M2.41426 4.8375L3.83728 5.31184L3.81755 5.37103L3.79298 5.42838L2.41426 4.8375ZM2.4002 12.0469L0.900198 12.0498L0.900196 12.0487L2.4002 12.0469ZM2.41426 19.1953V20.6953H0.917206L0.914261 19.1983L2.41426 19.1953ZM21.5861 19.1953L23.0861 19.1986L23.0828 20.6953H21.5861V19.1953ZM21.6002 12.8062L23.1002 12.8085L23.1002 12.8096L21.6002 12.8062ZM21.6096 6.42187V4.92187H23.1118L23.1096 6.42408L21.6096 6.42187ZM9.39863 6.42187V7.92187H8.77731L8.33797 7.48253L9.39863 6.42187ZM7.75801 4.78125V3.28125H8.37933L8.81867 3.72059L7.75801 4.78125ZM9.07519 7.21875V8.71875H8.45638L8.01756 8.28243L9.07519 7.21875ZM20.8127 7.21875V5.71875H22.3127V7.21875H20.8127ZM20.8127 8.8125H22.3127V10.3125H20.8127V8.8125ZM3.1877 8.8125V10.3125H1.6877V8.8125H3.1877ZM3.22051 5.61094L4.42051 6.51094L4.29194 6.68237L4.12051 6.81094L3.22051 5.61094ZM7.4252 5.57812V4.07812H8.04401L8.48283 4.51445L7.4252 5.57812ZM20.8033 14.0016L22.3033 14.0048L22.3033 14.0064L20.8033 14.0016ZM20.7893 18.3984L22.2892 18.4032L22.2845 19.8984H20.7893V18.3984ZM3.21113 18.3984V19.8984H1.71592L1.71114 18.4032L3.21113 18.3984ZM3.19707 14.0016L1.69708 14.0064L1.69707 14.0048L3.19707 14.0016ZM3.1877 9.60937L1.6877 9.61258L1.68449 8.10937H3.1877V9.60937ZM20.8127 9.60937V8.10937H22.3159L22.3127 9.61258L20.8127 9.60937ZM3.79298 5.42838C3.87054 5.2474 3.89296 5.08879 3.8932 5.08738C3.90041 5.04444 3.90409 5.01072 3.90558 4.99638C3.9088 4.96536 3.91013 4.94227 3.91042 4.93725C3.91123 4.92345 3.91131 4.91728 3.91104 4.92621C3.9106 4.94076 3.90996 4.96983 3.90926 5.01747C3.90789 5.11054 3.9066 5.25025 3.90544 5.43425C3.90312 5.80098 3.90136 6.32973 3.90019 6.98238C3.89785 8.28698 3.89785 10.0795 3.90019 12.0451L0.900196 12.0487C0.897852 10.0814 0.89785 8.28567 0.900198 6.977C0.901371 6.323 0.903133 5.78887 0.905499 5.41526C0.906678 5.22909 0.908027 5.07928 0.909586 4.97331C0.91035 4.92143 0.911253 4.87361 0.912423 4.83512C0.912957 4.81753 0.913865 4.7908 0.915512 4.76256C0.916226 4.75032 0.917983 4.72154 0.921636 4.68638C0.92334 4.66997 0.92723 4.63457 0.934662 4.59033C0.935116 4.58762 0.957759 4.42811 1.03554 4.24662L3.79298 5.42838ZM3.90019 12.0439L3.91425 19.1924L0.914261 19.1983L0.900198 12.0498L3.90019 12.0439ZM2.41426 17.6953H12.0002V20.6953H2.41426V17.6953ZM12.0002 17.6953H21.5861V20.6953H12.0002V17.6953ZM20.0861 19.192L20.1002 12.8029L23.1002 12.8096L23.0861 19.1986L20.0861 19.192ZM20.1002 12.804L20.1096 6.41967L23.1096 6.42408L23.1002 12.8085L20.1002 12.804ZM21.6096 7.92187H15.5018V4.92187H21.6096V7.92187ZM15.5018 7.92187H9.39863V4.92187H15.5018V7.92187ZM8.33797 7.48253L7.51766 6.66222L9.63898 4.5409L10.4593 5.36121L8.33797 7.48253ZM7.51766 6.66222L6.69735 5.84191L8.81867 3.72059L9.63898 4.5409L7.51766 6.66222ZM7.75801 6.28125H5.09551V3.28125H7.75801V6.28125ZM5.09551 6.28125C4.05072 6.28125 3.39951 6.28482 3.01025 6.29321C2.81004 6.29752 2.7089 6.3026 2.66752 6.30597C2.6386 6.30832 2.68097 6.30657 2.75267 6.29169C2.78121 6.28577 2.89024 6.26304 3.0244 6.20441C3.09219 6.17479 3.21856 6.1138 3.35575 6.00378C3.48913 5.8968 3.71578 5.67635 3.83728 5.31184L0.991233 4.36316C1.11362 3.99601 1.34225 3.77298 1.47879 3.66347C1.61912 3.55092 1.74981 3.48746 1.82314 3.45542C1.96838 3.39195 2.09338 3.36459 2.14323 3.35425C2.25756 3.33053 2.36394 3.32076 2.42408 3.31586C2.56082 3.30473 2.738 3.29838 2.94561 3.2939C3.37197 3.28471 4.05436 3.28125 5.09551 3.28125V6.28125ZM9.30783 5.33476L10.1328 6.15507L8.01756 8.28243L7.19256 7.46211L9.30783 5.33476ZM9.07519 5.71875H14.9439V8.71875H9.07519V5.71875ZM14.9439 5.71875H20.8127V8.71875H14.9439V5.71875ZM22.3127 7.21875V8.01562H19.3127V7.21875H22.3127ZM22.3127 8.01562V8.8125H19.3127V8.01562H22.3127ZM20.8127 10.3125H12.0002V7.3125H20.8127V10.3125ZM12.0002 10.3125H3.1877V7.3125H12.0002V10.3125ZM1.6877 8.8125V7.22812H4.6877V8.8125H1.6877ZM1.6877 7.22812C1.6877 6.78557 1.69125 6.37432 1.69737 6.06792C1.70039 5.9166 1.70422 5.78086 1.70912 5.67653C1.71142 5.62762 1.71481 5.56637 1.72038 5.5075C1.72272 5.48274 1.72839 5.42544 1.74043 5.35801C1.74566 5.32874 1.7596 5.25366 1.7886 5.16198C1.80278 5.11715 1.8322 5.03059 1.88444 4.92856C1.92164 4.85589 2.04841 4.61501 2.32051 4.41094L4.12051 6.81094C4.26871 6.69979 4.36708 6.58304 4.42575 6.50377C4.48651 6.42168 4.52816 6.34776 4.55483 6.29568C4.60648 6.19478 4.63533 6.1097 4.64893 6.0667C4.67677 5.97866 4.68957 5.90859 4.69367 5.88566C4.70345 5.83092 4.70689 5.79162 4.70705 5.78991C4.70826 5.77712 4.70747 5.78212 4.70582 5.81737C4.70281 5.88134 4.69961 5.98554 4.69677 6.12779C4.69117 6.40849 4.6877 6.7988 4.6877 7.22812H1.6877ZM2.02051 4.71094C2.27106 4.37687 2.58847 4.24959 2.63005 4.23174C2.73118 4.18832 2.81526 4.16558 2.85331 4.15586C2.93466 4.13508 3.001 4.12549 3.02512 4.12209C3.08314 4.11393 3.13406 4.10997 3.15886 4.10815C3.21683 4.10391 3.28196 4.10104 3.34189 4.09888C3.46707 4.09436 3.63601 4.09066 3.83163 4.08767C4.22585 4.08166 4.76003 4.07812 5.33926 4.07812V7.07812C4.77005 7.07812 4.25188 7.08162 3.87736 7.08733C3.6886 7.0902 3.54406 7.09353 3.45011 7.09692C3.42727 7.09775 3.40942 7.09851 3.39605 7.09916C3.38192 7.09985 3.37673 7.10023 3.3781 7.10013C3.37898 7.10007 3.38432 7.09968 3.39293 7.09884C3.40033 7.09813 3.41841 7.09631 3.44288 7.09286C3.45894 7.0906 3.51898 7.08215 3.59582 7.06252C3.63161 7.05338 3.71388 7.03122 3.81366 6.98838C3.86461 6.96651 3.94583 6.92838 4.03838 6.86824C4.12316 6.81314 4.27803 6.7009 4.42051 6.51094L2.02051 4.71094ZM5.33926 4.07812H7.4252V7.07812H5.33926V4.07812ZM8.48283 4.51445L9.30783 5.33476L7.19256 7.46211L6.36756 6.6418L8.48283 4.51445ZM22.3033 14.0064L22.2892 18.4032L19.2893 18.3936L19.3033 13.9968L22.3033 14.0064ZM20.7893 19.8984H12.0002V16.8984H20.7893V19.8984ZM12.0002 19.8984H3.21113V16.8984H12.0002V19.8984ZM1.71114 18.4032L1.69708 14.0064L4.69706 13.9968L4.71113 18.3936L1.71114 18.4032ZM1.69707 14.0048L1.6877 9.61258L4.68769 9.60617L4.69707 13.9984L1.69707 14.0048ZM3.1877 8.10937H12.0002V11.1094H3.1877V8.10937ZM12.0002 8.10937H20.8127V11.1094H12.0002V8.10937ZM22.3127 9.61258L22.3033 14.0048L19.3033 13.9984L19.3127 9.60617L22.3127 9.61258Z" fill="white" mask="url(#path-1-inside-1_661_5608)"/>
<mask id="path-3-inside-2_661_5608" fill="white">
<path d="M14.6625 12.1266L14.1094 12.6797L13.8281 12.3984L13.5469 12.1172L13.2656 12.3984L12.9844 12.6797L13.5469 13.2422L14.1094 13.8047L14.9531 12.9609L15.7969 12.1172L15.5297 11.85C15.3797 11.7 15.2484 11.5781 15.2344 11.5781C15.2203 11.5781 14.9625 11.8266 14.6625 12.1266Z"/>
</mask>
<path d="M14.1094 12.6797L15.17 13.7403L14.1094 14.801L13.0487 13.7403L14.1094 12.6797ZM13.5469 12.1172L12.4862 11.0565L13.5469 9.99587L14.6075 11.0565L13.5469 12.1172ZM12.9844 12.6797L11.9237 13.7403L10.8631 12.6797L11.9237 11.619L12.9844 12.6797ZM14.1094 13.8047L15.17 14.8653L14.1094 15.926L13.0487 14.8653L14.1094 13.8047ZM15.7969 12.1172L16.8575 11.0565L17.9182 12.1172L16.8575 13.1778L15.7969 12.1172ZM15.7232 13.1872L15.17 13.7403L13.0487 11.619L13.6018 11.0659L15.7232 13.1872ZM13.0487 13.7403L12.7675 13.4591L14.8888 11.3378L15.17 11.619L13.0487 13.7403ZM12.7675 13.4591L12.4862 13.1778L14.6075 11.0565L14.8888 11.3378L12.7675 13.4591ZM14.6075 13.1778L14.3263 13.4591L12.205 11.3378L12.4862 11.0565L14.6075 13.1778ZM14.3263 13.4591L14.045 13.7403L11.9237 11.619L12.205 11.3378L14.3263 13.4591ZM14.045 11.619L14.6075 12.1815L12.4862 14.3028L11.9237 13.7403L14.045 11.619ZM14.6075 12.1815L15.17 12.744L13.0487 14.8653L12.4862 14.3028L14.6075 12.1815ZM13.0487 12.744L13.8925 11.9003L16.0138 14.0216L15.17 14.8653L13.0487 12.744ZM13.8925 11.9003L14.7362 11.0565L16.8575 13.1778L16.0138 14.0216L13.8925 11.9003ZM14.7362 13.1778L14.469 12.9107L16.5903 10.7893L16.8575 11.0565L14.7362 13.1778ZM14.469 12.9107C14.403 12.8446 14.3477 12.7915 14.3136 12.76C14.2942 12.7421 14.2946 12.7432 14.3086 12.7548C14.3124 12.7579 14.3436 12.7839 14.3901 12.8162C14.411 12.8307 14.4656 12.868 14.5412 12.9077C14.5792 12.9276 14.647 12.9612 14.7361 12.9927C14.8087 13.0184 14.9916 13.0781 15.2344 13.0781V10.0781C15.6397 10.0781 15.9329 10.25 15.9355 10.2514C16.0147 10.2929 16.0737 10.333 16.0998 10.3511C16.1568 10.3906 16.2017 10.4273 16.2221 10.4443C16.2693 10.4834 16.3146 10.5243 16.3485 10.5556C16.421 10.6226 16.5064 10.7054 16.5903 10.7893L14.469 12.9107ZM15.2344 13.0781C15.3676 13.0781 15.477 13.0603 15.5517 13.0441C15.6285 13.0275 15.6917 13.0075 15.7375 12.9911C15.8264 12.9594 15.894 12.9257 15.9317 12.9059C16.0068 12.8663 16.0615 12.829 16.0828 12.8143C16.1303 12.7814 16.1636 12.7539 16.1703 12.7484C16.19 12.7322 16.1991 12.7235 16.1892 12.7325C16.1741 12.7462 16.1432 12.7751 16.0947 12.8217C16.0006 12.9121 15.8687 13.0416 15.7232 13.1872L13.6018 11.0659C13.7563 10.9115 13.9033 10.7668 14.0166 10.658C14.0719 10.6049 14.1267 10.553 14.1733 10.5108C14.1943 10.4918 14.2282 10.4614 14.2658 10.4304C14.2816 10.4175 14.3221 10.3844 14.3751 10.3477C14.3991 10.3311 14.4561 10.2924 14.533 10.2518C14.5716 10.2315 14.64 10.1974 14.7296 10.1655C14.8015 10.1398 14.9874 10.0781 15.2344 10.0781V13.0781Z" fill="white" mask="url(#path-3-inside-2_661_5608)"/>
<mask id="path-5-inside-3_661_5608" fill="white">
<path d="M8.01562 13.1953V13.5938H10.0078H12V13.1953V12.7969H10.0078H8.01562V13.1953Z"/>
</mask>
<path d="M8.01562 13.5938V15.0938H6.51562V13.5938H8.01562ZM12 13.5938H13.5V15.0938H12V13.5938ZM12 12.7969V11.2969H13.5V12.7969H12ZM8.01562 12.7969H6.51562V11.2969H8.01562V12.7969ZM9.51562 13.1953V13.5938H6.51562V13.1953H9.51562ZM8.01562 12.0938H10.0078V15.0938H8.01562V12.0938ZM10.0078 12.0938H12V15.0938H10.0078V12.0938ZM10.5 13.5938V13.1953H13.5V13.5938H10.5ZM10.5 13.1953V12.7969H13.5V13.1953H10.5ZM12 14.2969H10.0078V11.2969H12V14.2969ZM10.0078 14.2969H8.01562V11.2969H10.0078V14.2969ZM9.51562 12.7969V13.1953H6.51562V12.7969H9.51562Z" fill="white" mask="url(#path-5-inside-3_661_5608)"/>
<mask id="path-7-inside-4_661_5608" fill="white">
<path d="M14.6625 14.5172L14.1094 15.0703L13.8281 14.7891L13.5469 14.5078L13.2656 14.7891L12.9844 15.0703L13.5609 15.6469L14.1328 16.2188L14.9766 15.375L15.8203 14.5312L15.5391 14.25C15.3844 14.0953 15.2484 13.9687 15.2344 13.9687C15.2203 13.9687 14.9625 14.2172 14.6625 14.5172Z"/>
</mask>
<path d="M14.1094 15.0703L15.17 16.131L14.1094 17.1916L13.0487 16.131L14.1094 15.0703ZM13.5469 14.5078L12.4862 13.4472L13.5469 12.3865L14.6075 13.4472L13.5469 14.5078ZM12.9844 15.0703L11.9237 16.131L10.8631 15.0703L11.9237 14.0097L12.9844 15.0703ZM14.1328 16.2188L15.1935 17.2794L14.1328 18.3401L13.0722 17.2794L14.1328 16.2188ZM15.8203 14.5312L16.881 13.4706L17.9416 14.5312L16.881 15.5919L15.8203 14.5312ZM15.7232 15.5778L15.17 16.131L13.0487 14.0097L13.6018 13.4565L15.7232 15.5778ZM13.0487 16.131L12.7675 15.8497L14.8888 13.7284L15.17 14.0097L13.0487 16.131ZM12.7675 15.8497L12.4862 15.5685L14.6075 13.4472L14.8888 13.7284L12.7675 15.8497ZM14.6075 15.5685L14.3263 15.8497L12.205 13.7284L12.4862 13.4472L14.6075 15.5685ZM14.3263 15.8497L14.045 16.131L11.9237 14.0097L12.205 13.7284L14.3263 15.8497ZM14.045 14.0097L14.6216 14.5862L12.5003 16.7075L11.9237 16.131L14.045 14.0097ZM14.6216 14.5862L15.1935 15.1581L13.0722 17.2794L12.5003 16.7075L14.6216 14.5862ZM13.0722 15.1581L13.9159 14.3143L16.0372 16.4357L15.1935 17.2794L13.0722 15.1581ZM13.9159 14.3143L14.7597 13.4706L16.881 15.5919L16.0372 16.4357L13.9159 14.3143ZM14.7597 15.5919L14.4784 15.3107L16.5997 13.1893L16.881 13.4706L14.7597 15.5919ZM14.4784 15.3107C14.4097 15.242 14.3516 15.186 14.3151 15.1522C14.2945 15.1332 14.2935 15.1329 14.3059 15.1433C14.309 15.1458 14.3389 15.171 14.3838 15.2026C14.4038 15.2166 14.4573 15.2536 14.5316 15.2933C14.5688 15.3131 14.6363 15.3473 14.7253 15.3795C14.796 15.4051 14.9839 15.4687 15.2344 15.4687V12.4687C15.4857 12.4687 15.6747 12.5326 15.7468 12.5587C15.8371 12.5915 15.9063 12.6264 15.9452 12.6472C16.0231 12.6888 16.0811 12.7287 16.1065 12.7464C16.1622 12.7855 16.2062 12.8218 16.2264 12.8386C16.2731 12.8775 16.3184 12.9186 16.3529 12.9505C16.4265 13.0187 16.5137 13.1033 16.5997 13.1893L14.4784 15.3107ZM15.2344 15.4687C15.3676 15.4687 15.477 15.451 15.5517 15.4348C15.6285 15.4181 15.6917 15.3981 15.7375 15.3817C15.8264 15.35 15.894 15.3163 15.9317 15.2965C16.0068 15.2569 16.0615 15.2196 16.0828 15.2049C16.1303 15.172 16.1636 15.1445 16.1703 15.139C16.19 15.1228 16.1991 15.1142 16.1892 15.1231C16.1741 15.1368 16.1432 15.1658 16.0947 15.2123C16.0006 15.3027 15.8687 15.4323 15.7232 15.5778L13.6018 13.4565C13.7563 13.3021 13.9033 13.1575 14.0166 13.0486C14.0719 12.9956 14.1267 12.9436 14.1733 12.9014C14.1943 12.8824 14.2282 12.852 14.2658 12.821C14.2816 12.8081 14.3221 12.775 14.3751 12.7383C14.3991 12.7217 14.4561 12.683 14.533 12.6425C14.5716 12.6221 14.64 12.5881 14.7296 12.5561C14.8015 12.5305 14.9874 12.4687 15.2344 12.4687V15.4687Z" fill="white" mask="url(#path-7-inside-4_661_5608)"/>
<mask id="path-9-inside-5_661_5608" fill="white">
<path d="M8.01562 15.5859V15.9844H10.0078H12V15.5859V15.1875H10.0078H8.01562V15.5859Z"/>
</mask>
<path d="M8.01562 15.9844V17.4844H6.51562V15.9844H8.01562ZM12 15.9844H13.5V17.4844H12V15.9844ZM12 15.1875V13.6875H13.5V15.1875H12ZM8.01562 15.1875H6.51562V13.6875H8.01562V15.1875ZM9.51562 15.5859V15.9844H6.51562V15.5859H9.51562ZM8.01562 14.4844H10.0078V17.4844H8.01562V14.4844ZM10.0078 14.4844H12V17.4844H10.0078V14.4844ZM10.5 15.9844V15.5859H13.5V15.9844H10.5ZM10.5 15.5859V15.1875H13.5V15.5859H10.5ZM12 16.6875H10.0078V13.6875H12V16.6875ZM10.0078 16.6875H8.01562V13.6875H10.0078V16.6875ZM9.51562 15.1875V15.5859H6.51562V15.1875H9.51562Z" fill="white" mask="url(#path-9-inside-5_661_5608)"/>
</svg>
