<svg width="20" height="20" viewBox="0 0 20 20" fill="none" xmlns="http://www.w3.org/2000/svg">
<path d="M10.6252 5.83398C10.6252 5.48881 10.3453 5.20898 10.0002 5.20898C9.65498 5.20898 9.37516 5.48881 9.37516 5.83398V10.0006C9.37516 10.2161 9.48617 10.4164 9.66891 10.5306L12.1689 12.0931C12.4616 12.2761 12.8472 12.1871 13.0302 11.8944C13.2131 11.6017 13.1241 11.2161 12.8314 11.0332L10.6252 9.65425V5.83398Z" fill="#4A5154"/>
<path fill-rule="evenodd" clip-rule="evenodd" d="M10.0002 2.70898C5.97309 2.70898 2.7085 5.97357 2.7085 10.0006C2.7085 14.0277 5.97309 17.2923 10.0002 17.2923C14.0272 17.2923 17.2918 14.0277 17.2918 10.0006C17.2918 5.97357 14.0272 2.70898 10.0002 2.70898ZM3.9585 10.0006C3.9585 6.66393 6.66344 3.95898 10.0002 3.95898C13.3369 3.95898 16.0418 6.66393 16.0418 10.0006C16.0418 13.3374 13.3369 16.0423 10.0002 16.0423C6.66344 16.0423 3.9585 13.3374 3.9585 10.0006Z" fill="#4A5154"/>
</svg>
