<svg width="136" height="40" viewBox="0 0 136 40" fill="none" xmlns="http://www.w3.org/2000/svg">
<path d="M6.27 13.45V18.7H13.32V22.03H6.27V27.58H14.22V31H2.07V10.03H14.22V13.45H6.27ZM16.0568 22.63C16.0568 20.95 16.3868 19.46 17.0468 18.16C17.7268 16.86 18.6468 15.86 19.8068 15.16C20.9668 14.46 22.2568 14.11 23.6768 14.11C24.7568 14.11 25.7868 14.35 26.7668 14.83C27.7468 15.29 28.5268 15.91 29.1068 16.69V8.8H33.3668V31H29.1068V28.54C28.5868 29.36 27.8568 30.02 26.9168 30.52C25.9768 31.02 24.8868 31.27 23.6468 31.27C22.2468 31.27 20.9668 30.91 19.8068 30.19C18.6468 29.47 17.7268 28.46 17.0468 27.16C16.3868 25.84 16.0568 24.33 16.0568 22.63ZM29.1368 22.69C29.1368 21.67 28.9368 20.8 28.5368 20.08C28.1368 19.34 27.5968 18.78 26.9168 18.4C26.2368 18 25.5068 17.8 24.7268 17.8C23.9468 17.8 23.2268 17.99 22.5668 18.37C21.9068 18.75 21.3668 19.31 20.9468 20.05C20.5468 20.77 20.3468 21.63 20.3468 22.63C20.3468 23.63 20.5468 24.51 20.9468 25.27C21.3668 26.01 21.9068 26.58 22.5668 26.98C23.2468 27.38 23.9668 27.58 24.7268 27.58C25.5068 27.58 26.2368 27.39 26.9168 27.01C27.5968 26.61 28.1368 26.05 28.5368 25.33C28.9368 24.59 29.1368 23.71 29.1368 22.69ZM52.2588 14.38V31H48.0288V28.9C47.4888 29.62 46.7788 30.19 45.8988 30.61C45.0388 31.01 44.0988 31.21 43.0788 31.21C41.7788 31.21 40.6288 30.94 39.6288 30.4C38.6288 29.84 37.8388 29.03 37.2588 27.97C36.6988 26.89 36.4188 25.61 36.4188 24.13V14.38H40.6188V23.53C40.6188 24.85 40.9488 25.87 41.6088 26.59C42.2688 27.29 43.1688 27.64 44.3088 27.64C45.4688 27.64 46.3788 27.29 47.0388 26.59C47.6988 25.87 48.0288 24.85 48.0288 23.53V14.38H52.2588Z" fill="#97CA49"/>
<path d="M59.7028 8.8V31H55.5028V8.8H59.7028ZM78.4024 22.33C78.4024 22.93 78.3624 23.47 78.2824 23.95H66.1324C66.2324 25.15 66.6524 26.09 67.3924 26.77C68.1324 27.45 69.0424 27.79 70.1224 27.79C71.6824 27.79 72.7924 27.12 73.4524 25.78H77.9824C77.5024 27.38 76.5824 28.7 75.2224 29.74C73.8624 30.76 72.1924 31.27 70.2124 31.27C68.6124 31.27 67.1724 30.92 65.8924 30.22C64.6324 29.5 63.6424 28.49 62.9224 27.19C62.2224 25.89 61.8724 24.39 61.8724 22.69C61.8724 20.97 62.2224 19.46 62.9224 18.16C63.6224 16.86 64.6024 15.86 65.8624 15.16C67.1224 14.46 68.5724 14.11 70.2124 14.11C71.7924 14.11 73.2024 14.45 74.4424 15.13C75.7024 15.81 76.6724 16.78 77.3524 18.04C78.0524 19.28 78.4024 20.71 78.4024 22.33ZM74.0524 21.13C74.0324 20.05 73.6424 19.19 72.8824 18.55C72.1224 17.89 71.1924 17.56 70.0924 17.56C69.0524 17.56 68.1724 17.88 67.4524 18.52C66.7524 19.14 66.3224 20.01 66.1624 21.13H74.0524ZM79.488 22.63C79.488 20.95 79.818 19.46 80.478 18.16C81.158 16.86 82.068 15.86 83.208 15.16C84.368 14.46 85.658 14.11 87.078 14.11C88.318 14.11 89.398 14.36 90.318 14.86C91.258 15.36 92.008 15.99 92.568 16.75V14.38H96.798V31H92.568V28.57C92.028 29.35 91.278 30 90.318 30.52C89.378 31.02 88.288 31.27 87.048 31.27C85.648 31.27 84.368 30.91 83.208 30.19C82.068 29.47 81.158 28.46 80.478 27.16C79.818 25.84 79.488 24.33 79.488 22.63ZM92.568 22.69C92.568 21.67 92.368 20.8 91.968 20.08C91.568 19.34 91.028 18.78 90.348 18.4C89.668 18 88.938 17.8 88.158 17.8C87.378 17.8 86.658 17.99 85.998 18.37C85.338 18.75 84.798 19.31 84.378 20.05C83.978 20.77 83.778 21.63 83.778 22.63C83.778 23.63 83.978 24.51 84.378 25.27C84.798 26.01 85.338 26.58 85.998 26.98C86.678 27.38 87.398 27.58 88.158 27.58C88.938 27.58 89.668 27.39 90.348 27.01C91.028 26.61 91.568 26.05 91.968 25.33C92.368 24.59 92.568 23.71 92.568 22.69ZM104.2 16.96C104.74 16.08 105.44 15.39 106.3 14.89C107.18 14.39 108.18 14.14 109.3 14.14V18.55H108.19C106.87 18.55 105.87 18.86 105.19 19.48C104.53 20.1 104.2 21.18 104.2 22.72V31H100V14.38H104.2V16.96ZM120.439 14.14C122.419 14.14 124.019 14.77 125.239 16.03C126.459 17.27 127.069 19.01 127.069 21.25V31H122.869V21.82C122.869 20.5 122.539 19.49 121.879 18.79C121.219 18.07 120.319 17.71 119.179 17.71C118.019 17.71 117.099 18.07 116.419 18.79C115.759 19.49 115.429 20.5 115.429 21.82V31H111.229V14.38H115.429V16.45C115.989 15.73 116.699 15.17 117.559 14.77C118.439 14.35 119.399 14.14 120.439 14.14Z" fill="#55BED1"/>
</svg>
